<?xml version="1.0" standalone="no"?>
<!DOCTYPE svg PUBLIC "-//W3C//DTD SVG 20010904//EN"
 "http://www.w3.org/TR/2001/REC-SVG-20010904/DTD/svg10.dtd">
<svg version="1.0" xmlns="http://www.w3.org/2000/svg"
 width="1280.000000pt" height="1280.000000pt" viewBox="0 0 1280.000000 1280.000000"
 preserveAspectRatio="xMidYMid meet">

<g transform="translate(0.000000,1280.000000) scale(0.100000,-0.100000)"
fill="#000000" stroke="none">
<path d="M3750 11911 c0 -6 5 -13 10 -16 6 -3 10 1 10 9 0 9 -4 16 -10 16 -5
0 -10 -4 -10 -9z"/>
<path d="M3780 11875 c0 -12 -15 -15 -73 -15 -41 0 -77 -3 -81 -7 -15 -15 -84
-33 -132 -33 -34 0 -56 -5 -64 -15 -14 -16 -40 -20 -40 -6 0 20 -31 20 -48 0
-9 -12 -35 -29 -57 -39 -22 -11 -57 -35 -79 -54 -21 -20 -40 -36 -41 -36 -2 0
-15 4 -30 10 -26 10 -26 9 -19 -27 l7 -37 -27 17 c-30 20 -46 15 -46 -15 0
-17 -4 -20 -30 -15 -28 6 -57 -12 -32 -21 20 -6 13 -32 -8 -32 -11 0 -20 -6
-20 -14 0 -7 -30 -40 -67 -72 -109 -94 -118 -105 -99 -119 25 -19 20 -38 -8
-31 -27 7 -38 -9 -29 -43 4 -15 -5 -30 -31 -54 -20 -19 -36 -44 -36 -55 0 -19
-51 -72 -69 -72 -16 0 -30 -50 -24 -85 5 -30 2 -39 -16 -52 -16 -11 -20 -18
-12 -26 6 -6 11 -19 11 -29 0 -15 -5 -17 -25 -12 -32 8 -43 -17 -26 -60 10
-27 9 -33 -9 -45 -11 -8 -20 -25 -20 -40 0 -31 -9 -45 -34 -54 -15 -6 -17 -14
-12 -47 5 -31 3 -42 -9 -46 -18 -7 -20 -45 -4 -61 14 -14 3 -33 -18 -33 -11 0
-14 -6 -9 -22 3 -13 6 -26 6 -30 0 -5 7 -8 15 -8 14 0 16 -17 16 -156 0 -44 3
-53 23 -62 18 -8 22 -16 18 -40 -2 -16 1 -39 7 -49 5 -11 6 -24 2 -29 -5 -5
-12 -19 -15 -31 -6 -18 -3 -20 13 -16 18 5 35 -19 30 -43 -5 -32 4 -67 26 -92
32 -38 31 -42 -4 -42 -17 0 -31 -6 -35 -16 -8 -22 -8 -24 7 -24 8 0 22 -10 33
-21 10 -12 29 -25 42 -30 23 -9 30 -43 12 -54 -7 -4 -6 -13 1 -26 6 -11 8 -27
5 -35 -3 -9 1 -14 14 -14 30 0 63 -37 56 -63 -4 -18 9 -35 64 -86 38 -35 67
-68 64 -72 -3 -5 -2 -18 1 -29 5 -16 10 -18 25 -10 29 16 42 12 35 -10 -4 -13
-2 -20 7 -20 7 0 26 -16 42 -35 19 -22 38 -35 53 -35 13 0 34 -10 46 -23 12
-13 30 -27 40 -30 11 -4 21 -16 24 -27 3 -12 11 -19 17 -17 6 3 22 -1 36 -8
14 -7 51 -20 82 -29 32 -9 61 -24 66 -32 7 -12 14 -13 35 -5 23 9 31 7 48 -10
16 -16 23 -18 34 -9 8 7 19 9 25 5 14 -9 13 -32 -2 -38 -7 -2 -10 -8 -6 -12 4
-4 21 3 38 15 27 19 37 21 65 13 19 -6 54 -8 78 -6 26 3 47 1 51 -6 5 -7 20
-4 49 9 23 10 55 22 70 25 15 3 45 21 65 40 78 71 135 116 171 135 21 10 43
26 50 34 8 9 20 16 28 16 8 0 24 11 35 25 11 14 28 25 39 25 10 0 29 10 41 22
15 15 32 21 61 20 31 -2 40 2 44 18 3 13 14 20 29 20 13 0 28 8 33 19 6 10 25
24 43 31 18 7 41 20 50 28 9 8 23 12 30 9 7 -2 21 3 31 11 9 8 41 24 70 34 28
10 54 23 55 28 5 14 35 13 50 -2 9 -9 12 -6 12 13 0 22 7 28 55 43 38 12 68
30 94 58 25 25 44 37 52 33 9 -6 10 1 5 29 -7 35 -6 37 16 34 20 -3 23 1 24
32 0 19 3 42 6 50 3 8 10 33 14 55 8 35 13 40 37 41 41 1 55 19 34 42 -21 23
-22 70 -3 97 7 11 16 40 19 65 3 25 10 65 16 89 9 32 9 47 0 57 -15 18 -3 48
16 40 26 -9 25 11 -1 49 -17 26 -23 44 -18 58 10 31 4 139 -8 154 -11 14 -19
79 -21 187 -1 49 -6 81 -13 83 -7 2 -11 -4 -10 -13 0 -9 -5 -19 -11 -21 -8 -3
-13 5 -13 22 0 14 -9 35 -20 47 -24 26 -26 74 -4 86 10 6 14 14 9 22 -6 9 -11
7 -20 -10 l-12 -23 -21 21 c-12 12 -24 34 -28 49 -4 16 -13 35 -20 43 -19 22
-37 72 -35 98 0 14 -5 22 -15 22 -18 0 -86 66 -97 93 -3 9 -18 22 -32 27 -14
5 -25 16 -25 23 0 8 -9 22 -19 31 -11 10 -21 28 -23 40 -2 12 -11 22 -23 24
-11 2 -49 29 -84 62 -36 33 -77 62 -93 65 -15 4 -33 16 -39 27 -6 11 -17 17
-25 14 -19 -7 -113 40 -121 59 -3 9 -19 15 -37 16 -43 0 -118 39 -133 69 l-13
25 -6 -22 c-7 -27 -12 -28 -38 -8 -14 11 -24 12 -38 4 -14 -8 -23 -8 -31 0 -6
6 -26 11 -43 11 -18 0 -36 5 -39 10 -3 6 -17 10 -29 10 -13 0 -29 7 -36 15 -7
8 -16 15 -21 15 -5 0 -9 -7 -9 -15z m115 -105 c3 -6 25 -10 48 -10 75 1 179
-22 254 -56 17 -8 37 -14 45 -14 7 0 33 -14 58 -30 25 -16 49 -30 54 -30 4 0
31 -18 58 -40 28 -22 55 -40 60 -40 13 0 146 -113 186 -158 50 -57 167 -213
185 -247 32 -62 85 -181 97 -217 6 -21 16 -40 21 -43 5 -4 9 -16 9 -29 0 -12
4 -26 10 -32 5 -5 12 -43 15 -83 3 -41 11 -84 18 -95 13 -22 20 -323 8 -341
-3 -5 -13 -53 -22 -105 -18 -108 -36 -163 -87 -270 -51 -108 -100 -180 -130
-192 -15 -6 -50 -21 -78 -34 -28 -13 -57 -24 -63 -24 -7 0 -25 -9 -40 -19 -15
-11 -40 -23 -57 -27 -34 -8 -201 -91 -208 -103 -3 -5 -22 -12 -41 -15 -20 -4
-38 -13 -41 -20 -3 -8 -42 -33 -87 -56 -45 -24 -93 -51 -106 -61 -13 -11 -29
-19 -36 -19 -7 0 -18 -6 -24 -14 -7 -8 -36 -27 -64 -42 -29 -14 -54 -30 -57
-33 -11 -15 -95 -71 -105 -71 -7 0 -19 -8 -29 -19 -13 -15 -33 -19 -102 -20
-47 -1 -91 2 -97 7 -7 6 -30 12 -52 15 -97 14 -106 17 -103 46 2 21 -1 25 -17
23 -53 -9 -60 -7 -63 16 -3 23 -35 31 -47 12 -9 -15 -27 -12 -54 11 -21 18
-23 23 -13 40 17 26 6 42 -23 35 -28 -7 -55 2 -55 18 -1 6 -21 27 -45 46 -45
35 -54 53 -35 65 19 12 10 47 -16 68 -23 18 -26 25 -20 65 5 38 3 45 -14 49
-11 3 -20 12 -20 19 0 8 -4 14 -9 14 -5 0 -17 7 -26 16 -13 13 -14 28 -9 75 7
66 -7 115 -36 124 -19 6 -57 55 -43 55 5 0 14 4 21 8 10 7 8 19 -8 56 -26 62
-25 80 5 100 29 19 31 29 9 51 -13 12 -14 19 -5 28 17 17 13 45 -9 52 -11 4
-20 15 -20 27 0 11 8 22 20 25 13 3 20 14 20 28 0 15 -8 26 -20 30 -30 10 -27
59 5 73 17 8 25 20 25 37 0 17 -8 29 -25 37 -30 13 -33 44 -6 51 25 6 31 0 31
-30 0 -25 1 -26 24 -17 23 9 20 44 -3 44 -25 0 -36 33 -19 59 7 12 16 21 19
21 4 0 10 12 13 26 4 15 17 35 29 46 l22 19 -22 15 c-33 23 -28 40 17 69 46
29 50 47 14 63 -28 13 -24 32 7 32 16 0 19 4 14 20 -9 28 11 50 46 50 37 0 38
23 4 46 -35 23 -32 42 5 36 33 -5 39 12 20 49 -9 16 -7 21 15 29 22 8 25 16
25 55 0 34 5 48 20 57 11 7 20 21 20 31 0 15 6 17 35 11 29 -5 35 -3 35 12 0
10 -10 28 -22 41 -29 31 -13 49 27 31 25 -11 29 -10 47 15 14 19 26 26 39 22
12 -4 23 2 35 20 9 14 23 25 30 25 8 0 14 9 14 19 0 34 12 51 36 51 15 0 33
13 51 35 18 22 37 35 52 35 15 0 38 16 65 44 23 25 58 49 79 56 20 6 37 16 37
21 0 5 11 9 24 9 13 0 29 7 36 15 14 17 105 21 115 5z m-537 -263 c3 -12 -4
-17 -22 -17 -28 0 -33 9 -14 28 15 15 32 10 36 -11z m1672 -672 c0 -8 -7 -15
-15 -15 -8 0 -15 7 -15 15 0 8 7 15 15 15 8 0 15 -7 15 -15z"/>
<path d="M2890 10452 c0 -25 16 -46 29 -38 18 12 12 43 -9 49 -14 4 -20 0 -20
-11z"/>
<path d="M3070 9616 c0 -9 5 -16 10 -16 6 0 10 4 10 9 0 6 -4 13 -10 16 -5 3
-10 -1 -10 -9z"/>
<path d="M4166 11841 c-4 -5 3 -7 14 -4 23 6 26 13 6 13 -8 0 -17 -4 -20 -9z"/>
<path d="M4260 11784 c0 -8 5 -12 10 -9 6 3 10 10 10 16 0 5 -4 9 -10 9 -5 0
-10 -7 -10 -16z"/>
<path d="M4350 11746 c0 -9 5 -16 10 -16 6 0 10 4 10 9 0 6 -4 13 -10 16 -5 3
-10 -1 -10 -9z"/>
<path d="M4580 11595 c0 -8 9 -15 20 -15 11 0 20 7 20 15 0 8 -9 15 -20 15
-11 0 -20 -7 -20 -15z"/>
<path d="M4682 11558 c5 -15 28 -23 28 -10 0 5 -7 13 -16 16 -10 4 -14 1 -12
-6z"/>
<path d="M2790 11540 c0 -5 5 -10 10 -10 6 0 10 5 10 10 0 6 -4 10 -10 10 -5
0 -10 -4 -10 -10z"/>
<path d="M5000 11500 c0 -5 5 -10 11 -10 5 0 7 5 4 10 -3 6 -8 10 -11 10 -2 0
-4 -4 -4 -10z"/>
<path d="M2790 11461 c0 -5 5 -13 10 -16 6 -3 10 -2 10 4 0 5 -4 13 -10 16 -5
3 -10 2 -10 -4z"/>
<path d="M4792 11365 c4 -32 22 -38 26 -9 2 13 -4 24 -13 28 -13 5 -16 0 -13
-19z"/>
<path d="M4912 11168 c6 -18 28 -21 28 -4 0 9 -7 16 -16 16 -9 0 -14 -5 -12
-12z"/>
<path d="M5100 10704 c0 -8 5 -12 10 -9 6 3 10 10 10 16 0 5 -4 9 -10 9 -5 0
-10 -7 -10 -16z"/>
<path d="M5100 10600 c0 -5 4 -10 9 -10 6 0 13 5 16 10 3 6 -1 10 -9 10 -9 0
-16 -4 -16 -10z"/>
<path d="M5108 10313 c7 -3 16 -2 19 1 4 3 -2 6 -13 5 -11 0 -14 -3 -6 -6z"/>
<path d="M2400 10295 c0 -9 5 -15 11 -13 6 2 11 8 11 13 0 5 -5 11 -11 13 -6
2 -11 -4 -11 -13z"/>
<path d="M6851 10044 c0 -11 3 -14 6 -6 3 7 2 16 -1 19 -3 4 -6 -2 -5 -13z"/>
<path d="M6453 10035 c-17 -7 -33 -12 -35 -11 -1 2 -28 6 -58 10 l-55 6 24
-18 c32 -26 19 -29 -114 -27 -104 2 -111 1 -142 -24 -18 -14 -33 -32 -33 -40
0 -10 -8 -12 -31 -7 -18 3 -38 1 -45 -5 -10 -8 -22 -8 -44 -1 -41 15 -101 4
-108 -20 -6 -23 -7 -23 -32 2 -11 11 -30 20 -41 20 -18 0 -21 -4 -16 -30 9
-42 -38 -82 -58 -50 -3 6 -15 10 -26 10 -11 0 -24 10 -29 23 -9 20 -10 20 -9
2 2 -39 -1 -46 -38 -63 -21 -9 -44 -25 -52 -35 -11 -16 -22 -18 -67 -12 -52 6
-54 5 -64 -20 -8 -22 -15 -26 -35 -23 -22 5 -24 3 -18 -20 5 -23 4 -24 -23
-19 -16 3 -23 4 -16 1 6 -3 12 -14 12 -25 0 -16 -5 -18 -27 -13 -16 4 -30 8
-32 10 -2 2 -24 -8 -50 -21 -28 -16 -62 -25 -89 -25 -39 0 -43 -2 -40 -22 2
-17 11 -24 36 -28 18 -3 33 -8 32 -12 0 -5 0 -13 0 -19 0 -8 -13 -9 -39 -5
-30 5 -44 1 -65 -15 -21 -17 -34 -19 -66 -14 -33 6 -40 11 -40 29 0 12 5 27
11 33 17 17 -5 24 -40 12 -39 -14 -39 -21 -1 -53 27 -22 29 -28 20 -47 -11
-20 -21 -21 -62 -4 -14 5 -18 2 -18 -14 0 -14 6 -21 20 -21 23 0 27 -18 5 -26
-15 -6 -30 -41 -27 -61 2 -9 -10 -13 -32 -13 -30 0 -37 -4 -42 -25 -3 -14 -11
-25 -17 -25 -18 0 -107 -99 -107 -120 0 -14 -7 -20 -22 -20 -12 0 -35 -12 -50
-27 -27 -26 -29 -26 -42 -8 -7 10 -18 15 -24 11 -19 -11 -14 -26 8 -26 11 0
20 -4 20 -10 0 -5 10 -18 22 -30 26 -24 4 -28 -26 -5 -29 22 -67 19 -73 -5 -6
-23 -23 -27 -23 -5 0 16 -43 31 -60 20 -14 -9 6 -35 27 -35 31 0 8 -35 -26
-40 -41 -6 -48 -20 -23 -43 15 -14 25 -15 48 -7 33 11 86 0 92 -20 4 -10 -5
-12 -42 -7 -39 6 -48 4 -58 -13 -15 -23 -38 -27 -38 -5 0 17 -50 45 -80 45
-26 0 -25 -8 2 -37 l22 -23 -23 -16 c-17 -12 -22 -24 -19 -45 4 -25 2 -28 -14
-23 -12 3 -34 -7 -65 -32 -75 -59 -82 -69 -76 -112 5 -34 2 -40 -16 -45 -19
-5 -21 -10 -15 -41 5 -27 3 -36 -7 -36 -134 -5 -138 -7 -120 -46 15 -33 7 -44
-30 -44 -16 0 -29 -5 -29 -10 0 -6 -11 -15 -25 -20 -22 -8 -25 -15 -25 -59 0
-33 -5 -53 -17 -62 -9 -8 -23 -27 -30 -44 -30 -61 -38 -75 -45 -75 -5 0 -8 5
-8 11 0 5 -4 7 -10 4 -5 -3 -10 -21 -10 -40 0 -30 -34 -85 -53 -85 -10 0 -63
-55 -70 -72 -3 -10 -13 -18 -22 -18 -11 0 -15 -10 -15 -35 0 -29 -4 -35 -21
-35 -20 0 -21 -4 -17 -50 4 -39 1 -53 -12 -65 -18 -16 -16 -55 1 -55 17 0 9
-18 -11 -23 -16 -4 -19 -11 -14 -35 4 -21 2 -31 -10 -35 -9 -4 -16 -1 -16 5 0
9 -3 9 -12 0 -9 -9 -10 -15 -2 -20 6 -4 9 -18 7 -32 -2 -14 -5 -37 -5 -52 -1
-21 -7 -28 -28 -33 -17 -4 -27 -12 -26 -22 0 -8 -11 -25 -26 -36 l-28 -21 -23
22 c-27 26 -52 28 -61 7 -3 -8 -12 -15 -20 -15 -7 0 -17 -11 -20 -24 -3 -14
-15 -28 -26 -31 -22 -7 -23 -10 -11 -40 5 -12 3 -33 -4 -52 -11 -27 -11 -31 1
-26 8 3 18 -5 26 -22 9 -20 18 -25 37 -23 22 3 26 8 27 38 1 59 3 66 27 93 14
17 33 27 49 27 48 0 78 18 84 50 6 25 10 29 30 24 24 -6 34 9 14 21 -16 10
-12 22 10 28 14 3 18 10 14 21 -7 19 60 91 76 81 15 -9 12 -32 -5 -39 -8 -3
-25 -28 -37 -56 -12 -27 -25 -50 -30 -50 -4 0 -8 -19 -8 -43 0 -23 -7 -53 -16
-65 -15 -22 -15 -23 9 -17 20 5 29 1 42 -19 10 -14 26 -26 36 -26 24 0 25 -26
1 -39 -14 -7 -21 -5 -30 10 -16 26 -40 24 -52 -3 -13 -31 -32 -53 -52 -61 -26
-9 -23 -19 17 -60 31 -32 34 -39 23 -56 -9 -16 -9 -25 1 -43 11 -22 8 -28 -30
-71 -24 -26 -46 -47 -50 -47 -4 0 -7 22 -7 50 -1 40 3 50 19 55 10 4 19 14 19
23 0 9 3 27 6 40 5 18 2 24 -14 29 -12 3 -24 13 -27 22 -8 24 -69 63 -89 55
-13 -5 -15 -14 -11 -35 5 -21 1 -32 -14 -46 -12 -9 -21 -26 -21 -37 0 -11 -8
-28 -17 -38 -16 -18 -16 -21 0 -47 22 -38 21 -58 -3 -66 -27 -8 -27 -56 0 -80
26 -23 25 -29 -5 -45 -33 -18 -32 -36 5 -49 37 -12 40 -43 5 -59 -32 -15 -32
-31 1 -57 20 -16 25 -26 20 -43 -4 -12 -14 -22 -22 -22 -22 0 -17 -38 7 -51
19 -10 21 -16 15 -77 -9 -85 -9 -108 0 -154 l6 -38 -32 7 c-36 7 -35 11 -14
-57 5 -17 3 -19 -12 -13 -11 3 -30 15 -43 25 -18 13 -27 16 -35 8 -8 -8 -3
-18 17 -36 27 -23 31 -54 7 -54 -5 0 -10 -13 -10 -30 0 -34 -16 -39 -36 -12
-12 15 -13 13 -14 -17 0 -19 -9 -54 -21 -78 -15 -32 -18 -47 -10 -56 11 -14 4
-57 -10 -57 -5 0 -9 -7 -9 -15 0 -8 6 -15 13 -15 17 0 35 -38 43 -93 10 -63
44 -95 44 -41 0 17 6 28 19 31 28 7 43 68 33 130 -5 32 -5 56 0 61 6 6 5 39
-3 87 -12 74 -11 78 8 94 11 9 23 24 27 34 7 22 25 18 40 -7 9 -13 7 -20 -6
-30 -26 -19 -22 -45 7 -56 20 -8 25 -16 25 -45 0 -23 5 -35 14 -35 7 0 19 -7
26 -15 10 -12 9 -16 -6 -22 -38 -14 -47 -65 -14 -83 23 -12 17 -36 -11 -45
-26 -9 -26 -55 1 -62 11 -3 20 -14 20 -24 0 -11 11 -24 25 -31 30 -13 33 -38
5 -38 -26 0 -26 -26 0 -40 11 -6 20 -17 20 -25 0 -16 -34 -38 -44 -28 -4 4 7
-26 24 -66 17 -40 30 -74 28 -76 -2 -1 -13 -8 -25 -14 -29 -15 -29 -45 0 -66
17 -13 19 -18 8 -22 -24 -10 -100 -84 -107 -105 -11 -36 13 -44 40 -15 14 15
29 27 35 27 5 0 13 9 16 20 3 11 13 20 22 20 11 0 8 -8 -11 -31 -14 -17 -26
-37 -26 -44 0 -8 -9 -19 -20 -25 -25 -13 -26 -35 -2 -52 10 -7 21 -21 25 -30
9 -24 42 -23 53 2 7 14 13 17 24 10 13 -8 13 -13 2 -30 -15 -24 -8 -40 17 -40
14 0 18 -9 19 -49 1 -36 7 -56 21 -70 22 -22 19 -46 -5 -55 -22 -9 -19 -122 4
-136 16 -10 16 -10 0 -20 -10 -6 -18 -21 -18 -33 0 -13 -6 -31 -14 -42 -7 -11
-16 -32 -20 -47 -10 -42 -38 -26 -30 17 5 26 1 37 -19 58 -16 15 -24 32 -21
44 4 14 -2 23 -23 32 l-28 13 26 14 c15 7 29 22 32 34 3 11 13 20 22 20 15 0
16 8 10 68 -10 99 -11 102 -50 102 -24 0 -38 -6 -45 -20 -13 -25 -3 -85 17
-101 8 -7 18 -20 23 -29 7 -13 4 -16 -13 -16 -18 1 -23 -5 -25 -31 -2 -19 -9
-33 -17 -33 -17 0 -25 -77 -12 -108 6 -13 19 -22 33 -22 37 0 38 -18 4 -50
-26 -24 -30 -33 -20 -45 9 -11 17 -12 36 -3 21 10 27 8 45 -10 11 -12 27 -22
36 -22 13 0 14 -7 9 -41 -6 -35 -4 -40 9 -36 8 4 15 2 15 -3 0 -6 6 -10 13
-10 7 0 13 15 15 36 3 42 29 69 50 52 9 -8 6 -16 -14 -35 -27 -25 -24 -38 9
-45 24 -4 23 -22 -3 -26 -18 -3 -30 -32 -12 -32 14 0 82 -70 82 -84 0 -26 -23
-30 -38 -8 -18 28 -52 29 -52 3 0 -11 -5 -23 -10 -26 -17 -11 -23 24 -8 48 11
16 12 28 5 45 -13 28 -34 28 -58 -1 -23 -27 -25 -10 -3 21 20 29 16 32 -35 39
l-41 6 0 -42 c0 -22 0 -44 0 -48 0 -5 4 -8 10 -8 5 0 17 -10 25 -22 9 -13 25
-23 36 -23 28 0 25 -38 -5 -49 -21 -9 -36 -29 -36 -52 0 -5 16 -9 35 -9 34 0
35 1 35 43 1 39 2 41 15 22 8 -11 19 -25 25 -32 15 -18 12 -44 -6 -58 -24 -17
-23 -194 0 -207 20 -11 21 -28 2 -28 -15 0 -26 -21 -26 -50 0 -24 41 -14 48
12 9 37 26 10 28 -46 1 -43 7 -61 20 -71 16 -11 17 -16 5 -38 -11 -20 -11 -28
0 -46 17 -26 33 -27 59 -1 11 11 25 20 30 20 17 0 11 -35 -9 -52 -10 -8 -21
-22 -24 -29 -5 -11 -10 -8 -23 8 -20 27 -50 30 -56 6 -6 -24 1 -43 15 -43 7 0
34 -23 60 -50 39 -41 45 -50 28 -50 -31 0 -34 -17 -6 -36 20 -13 25 -25 25
-55 0 -37 2 -39 30 -39 28 0 30 3 31 38 1 20 1 40 0 44 0 4 6 5 14 2 8 -4 15
-19 15 -34 0 -15 7 -33 15 -40 22 -18 18 -40 -6 -40 -16 0 -20 -5 -17 -27 3
-25 7 -28 36 -25 35 2 41 -10 17 -34 -8 -9 -15 -29 -15 -45 0 -19 5 -29 15
-29 8 0 15 -7 15 -15 0 -8 9 -19 20 -25 11 -6 20 -17 20 -25 0 -8 9 -15 20
-15 11 0 20 -4 20 -10 0 -5 -6 -10 -14 -10 -28 0 -28 -22 -2 -49 26 -27 26
-41 0 -41 -7 0 -20 7 -28 16 -22 22 -36 9 -29 -26 3 -19 1 -30 -6 -30 -6 0
-11 -5 -11 -11 0 -14 50 -63 73 -72 13 -5 16 -13 11 -32 -10 -40 25 -31 79 21
39 37 54 45 80 43 18 -2 36 -5 40 -7 11 -5 -49 -42 -68 -42 -20 0 -55 -40 -55
-62 0 -21 3 -22 47 -6 27 10 33 17 33 40 0 26 2 27 25 16 14 -6 25 -15 25 -20
0 -5 -11 -13 -25 -18 -14 -5 -25 -16 -25 -23 0 -8 -9 -22 -20 -32 -28 -25 -25
-53 5 -65 23 -9 25 -14 19 -45 -5 -27 -3 -35 9 -35 8 0 17 7 21 15 3 8 12 12
20 9 20 -8 66 35 66 61 0 11 -5 26 -12 33 -6 6 -9 14 -7 17 6 5 102 -72 108
-87 1 -5 -5 -18 -14 -28 -17 -18 -16 -20 11 -32 16 -7 40 -23 54 -36 14 -12
33 -25 42 -28 9 -3 20 -13 23 -24 10 -30 32 -45 50 -30 15 12 20 1 27 -60 3
-27 38 -42 38 -16 0 24 29 19 39 -6 14 -36 98 -118 120 -118 31 0 50 -11 45
-25 -3 -7 4 -15 15 -18 12 -3 22 1 26 11 4 12 8 13 18 3 9 -9 9 -14 -2 -21
-12 -7 -10 -13 10 -35 49 -54 60 -62 99 -74 21 -6 52 -23 68 -36 34 -29 48
-31 56 -10 8 23 25 18 32 -11 4 -16 11 -23 21 -20 8 3 30 -9 51 -30 44 -43 71
-55 95 -42 21 11 97 -10 97 -28 0 -16 31 -27 44 -14 17 17 29 11 23 -10 -7
-28 23 -42 72 -34 37 6 41 4 50 -20 7 -17 15 -24 26 -20 8 3 15 10 15 15 0 15
47 10 60 -6 6 -8 24 -14 38 -14 36 -1 68 -6 117 -19 22 -6 72 -13 112 -17 42
-4 77 -13 84 -21 16 -19 39 -18 54 3 12 17 14 17 32 1 16 -15 50 -17 263 -19
135 -1 259 -2 275 -1 17 0 57 1 89 2 33 1 66 5 75 9 9 5 72 11 141 15 69 3
148 10 175 16 28 5 61 12 75 14 66 10 107 19 122 27 10 5 28 7 42 3 13 -3 27
-1 30 5 4 6 20 11 37 11 16 0 29 5 29 10 0 6 28 10 65 10 46 0 78 6 104 20 22
11 58 22 81 26 23 4 47 13 55 20 7 8 24 14 37 14 13 1 34 7 48 15 14 8 39 14
56 15 17 0 37 6 43 14 7 8 24 17 39 21 15 4 35 14 44 22 12 11 27 14 48 9 26
-5 32 -2 40 18 10 26 29 36 69 36 16 0 44 13 66 30 20 16 52 32 71 36 19 3 37
10 39 15 5 8 80 44 143 69 18 7 37 21 43 31 5 11 20 19 34 19 23 0 55 23 55
40 0 4 18 15 39 24 22 8 43 21 48 29 12 20 96 64 114 60 11 -3 19 5 23 21 5
19 16 28 45 36 21 6 41 16 44 24 9 22 97 78 113 72 22 -8 29 -3 26 20 -4 28
60 78 88 69 15 -5 20 -2 20 13 0 10 19 39 43 63 24 24 46 52 50 62 7 18 42 23
52 7 11 -18 25 -10 25 14 0 15 12 34 30 49 17 14 30 30 30 35 0 12 25 22 56
22 19 0 24 5 24 28 0 30 14 57 29 57 12 0 71 62 71 75 0 20 34 41 56 36 12 -3
26 -2 29 4 3 5 -3 10 -14 10 -24 0 -18 27 11 48 10 7 25 26 33 43 10 17 23 29
36 29 13 0 25 11 35 33 8 17 32 54 53 81 22 27 37 55 34 62 -2 7 5 15 16 19
11 3 21 16 23 28 2 14 10 21 21 21 12 -1 17 6 17 27 0 28 7 33 42 30 15 -2 15
2 5 30 -11 28 -10 33 11 46 12 9 22 23 22 33 0 10 11 25 25 34 14 9 25 23 25
30 0 7 7 19 15 26 8 7 15 21 15 32 0 10 7 21 15 24 8 4 15 15 15 26 0 14 6 18
22 16 16 -2 22 3 24 22 9 72 17 100 29 100 19 0 49 51 47 79 -1 13 7 40 18 58
11 19 20 43 20 53 0 24 18 36 33 21 15 -15 27 -14 27 4 0 9 -7 18 -15 21 -21
8 -19 37 5 67 11 14 20 32 20 40 0 9 5 19 10 22 6 4 8 11 4 16 -3 5 5 31 18
59 17 37 27 48 41 44 18 -6 24 11 7 21 -15 9 -12 59 5 81 8 10 19 36 25 57 10
33 14 36 35 31 19 -5 25 -2 25 11 0 12 -5 15 -21 10 -20 -7 -21 -5 -15 21 4
16 13 41 20 56 8 14 11 38 9 51 -4 18 1 31 16 43 24 21 26 36 9 64 -10 16 -9
23 9 42 14 16 23 41 26 78 7 77 20 131 32 131 6 0 9 10 8 22 -7 60 2 117 19
128 5 3 4 17 -2 33 -5 15 -7 33 -3 39 5 7 8 48 8 92 l0 80 28 -3 c35 -4 34 3
-4 38 l-30 29 17 33 c19 35 28 134 14 143 -14 8 -12 165 2 165 9 0 9 3 0 12
-15 15 -15 89 0 123 10 23 10 28 -5 36 -24 14 -22 60 3 66 25 7 26 21 3 30
-28 10 -34 25 -27 67 4 27 2 41 -7 47 -11 7 -12 12 -2 28 11 17 10 27 -4 57
-17 34 -17 37 1 49 17 13 17 15 -5 44 -17 24 -21 39 -17 75 3 25 2 46 -3 46
-5 0 -9 18 -9 39 0 25 -5 41 -15 45 -11 4 -15 20 -15 58 0 39 -5 57 -21 75
-19 19 -20 25 -9 38 11 13 10 20 -7 43 -23 31 -43 104 -43 159 -1 22 -13 60
-30 93 -17 30 -30 67 -30 83 0 15 -5 37 -12 50 -26 51 -28 58 -22 82 9 38 -4
75 -30 85 -18 6 -23 14 -19 28 3 13 -7 32 -27 56 -24 27 -31 42 -26 60 4 18 0
25 -19 34 -30 14 -33 38 -5 47 11 3 20 10 20 15 0 5 -7 7 -15 4 -19 -8 -45 13
-45 35 0 10 -16 34 -35 55 -39 43 -53 82 -36 99 18 18 12 37 -12 37 -32 0 -47
18 -47 56 0 19 -6 34 -15 38 -8 3 -20 16 -26 30 -6 13 -20 27 -31 30 -16 4
-19 10 -14 30 5 19 3 24 -8 20 -20 -8 -46 23 -46 55 0 19 -15 44 -50 82 -27
30 -50 63 -50 74 0 31 -12 43 -45 47 -23 2 -30 8 -31 26 -1 21 -39 68 -143
178 -27 28 -56 65 -65 82 -16 31 -48 56 -59 46 -3 -3 -8 4 -12 15 -8 27 -71
91 -89 91 -27 0 -30 39 -4 60 28 23 21 25 -18 6 -27 -15 -64 -7 -64 14 0 19
-104 115 -122 112 -10 -2 -18 1 -18 6 0 11 -89 102 -99 102 -4 0 -26 18 -50
40 -23 22 -49 40 -57 40 -8 0 -26 14 -41 31 -16 17 -47 44 -70 60 -23 16 -45
38 -48 49 -5 15 -15 20 -41 20 -19 0 -33 5 -32 11 3 13 -17 26 -53 33 -15 3
-37 14 -50 25 -19 16 -22 22 -11 32 6 7 12 20 12 28 0 12 -3 12 -17 -2 -11 -9
-34 -15 -57 -14 -30 1 -40 6 -47 24 -5 13 -17 23 -28 23 -21 0 -82 32 -114 59
-10 8 -25 16 -34 17 -8 2 -25 12 -37 23 -12 12 -34 21 -48 21 -15 0 -34 8 -44
17 -10 11 -29 16 -46 14 -20 -2 -28 2 -28 13 0 11 -9 16 -29 16 -39 0 -81 34
-63 51 21 22 13 32 -13 15 -32 -21 -53 -20 -90 2 -30 19 -59 28 -125 38 -19 3
-39 10 -45 15 -5 5 -20 9 -35 9 -14 0 -33 7 -44 15 -10 8 -39 17 -65 21 -25 4
-64 17 -87 30 -22 13 -65 26 -95 29 -121 13 -139 17 -134 25 13 21 -112 29
-132 9 -17 -17 -49 -3 -34 14 8 11 2 13 -32 11 -127 -7 -147 -7 -153 -1 -4 4
-24 4 -46 1 -24 -4 -38 -3 -38 4 0 6 -13 13 -30 17 -16 4 -30 11 -30 16 0 5
-4 9 -10 9 -14 0 -12 -27 3 -33 9 -4 9 -7 0 -14 -20 -14 -109 -6 -136 12 -28
18 -47 13 -47 -11 0 -16 -27 -18 -50 -4 -11 7 -9 11 13 19 16 6 25 15 22 21
-3 5 -7 10 -8 10 -1 -1 -16 -7 -34 -15z m1631 -481 c10 -26 7 -34 -13 -34 -20
0 -35 25 -25 41 9 14 31 10 38 -7z m-84 -13 c0 -11 -9 -23 -20 -26 -15 -5 -20
-15 -20 -41 0 -24 -4 -34 -16 -34 -9 0 -24 -10 -33 -21 -9 -12 -28 -22 -42
-23 -20 -1 -24 -6 -24 -31 0 -19 -5 -29 -13 -27 -7 1 -18 -9 -24 -23 -14 -32
-26 -32 -34 0 -7 30 -20 32 -34 5 -6 -11 -20 -20 -32 -20 -18 0 -20 4 -15 40
3 22 1 43 -4 46 -12 7 -12 51 1 59 5 3 19 -6 32 -20 33 -38 50 -33 47 15 -4
46 4 58 26 40 10 -8 15 -25 13 -44 -4 -36 26 -50 37 -17 3 10 17 26 30 35 14
9 25 23 25 31 0 7 9 17 21 20 11 4 25 18 31 31 14 29 48 33 48 5z m148 -4 c2
-10 -3 -17 -12 -17 -10 0 -16 9 -16 21 0 24 23 21 28 -4z m122 -47 c20 0 31
-6 35 -20 6 -18 16 -24 36 -22 4 1 10 -10 13 -23 8 -30 41 -34 49 -5 7 28 24
25 31 -5 5 -19 13 -25 35 -25 16 0 34 -7 41 -15 7 -8 19 -15 26 -15 8 0 14 -7
14 -15 0 -8 9 -15 20 -15 10 0 34 -13 52 -29 18 -15 48 -36 67 -46 32 -16 63
-43 158 -137 18 -17 42 -32 53 -33 11 -1 41 -23 67 -48 26 -26 55 -47 64 -47
10 0 20 -9 24 -19 3 -11 15 -23 25 -26 11 -3 34 -24 51 -46 18 -23 43 -45 56
-50 18 -7 22 -14 19 -34 -4 -22 -1 -25 22 -25 20 0 48 -22 120 -97 51 -54 100
-110 108 -125 8 -16 19 -28 25 -28 5 0 16 -15 24 -34 8 -19 24 -37 35 -41 11
-3 25 -15 30 -25 6 -11 33 -46 60 -79 28 -33 50 -63 50 -67 0 -3 13 -25 29
-49 16 -24 32 -53 36 -64 3 -12 13 -21 21 -21 8 0 22 -16 30 -35 8 -20 21 -38
29 -41 7 -3 21 -24 30 -47 9 -23 25 -52 36 -63 22 -24 99 -172 99 -191 0 -6
16 -29 35 -50 19 -21 40 -51 46 -68 6 -16 24 -56 40 -88 16 -32 29 -66 29 -75
0 -10 9 -28 20 -42 11 -14 20 -32 20 -41 0 -8 7 -24 15 -35 8 -10 15 -32 15
-47 0 -16 5 -38 11 -49 7 -12 17 -44 25 -72 7 -28 26 -87 42 -132 17 -44 33
-103 37 -130 4 -27 12 -54 17 -60 5 -7 11 -36 15 -65 3 -30 11 -61 18 -69 14
-16 23 -72 28 -160 2 -30 8 -65 15 -77 7 -12 9 -28 6 -36 -3 -9 0 -25 6 -37 6
-12 11 -66 11 -123 0 -56 4 -106 9 -112 9 -11 19 -167 20 -330 2 -202 -14
-447 -34 -550 -2 -11 -12 -76 -21 -144 -9 -68 -20 -132 -25 -142 -5 -9 -12
-43 -16 -75 -3 -33 -11 -75 -18 -94 -7 -19 -23 -66 -34 -105 -26 -85 -120
-378 -135 -420 -5 -16 -19 -39 -29 -51 -10 -11 -18 -30 -18 -41 0 -11 -11 -40
-24 -64 -13 -24 -30 -63 -37 -87 -7 -23 -18 -47 -26 -53 -7 -6 -13 -18 -13
-25 0 -8 -11 -31 -24 -52 -12 -20 -27 -48 -31 -62 -4 -14 -16 -31 -27 -38 -10
-7 -31 -41 -47 -75 -16 -34 -43 -75 -60 -91 -17 -16 -36 -45 -42 -65 -6 -20
-22 -47 -34 -61 -30 -33 -95 -128 -95 -138 0 -4 -16 -23 -35 -42 -19 -19 -35
-40 -35 -47 0 -7 -12 -23 -26 -36 -14 -12 -34 -38 -45 -58 -10 -20 -25 -39
-33 -42 -8 -3 -26 -24 -40 -46 -14 -22 -41 -55 -60 -74 -18 -19 -39 -44 -45
-56 -7 -11 -18 -21 -26 -21 -8 0 -22 -12 -32 -27 -34 -54 -203 -203 -229 -203
-7 0 -17 -6 -21 -14 -33 -58 -196 -198 -244 -209 -15 -4 -41 -23 -58 -42 -17
-19 -39 -35 -50 -35 -12 0 -28 -11 -37 -25 -9 -14 -20 -25 -26 -25 -5 0 -34
-19 -66 -42 -64 -49 -76 -56 -199 -117 -48 -24 -104 -47 -123 -50 -26 -5 -36
-12 -38 -28 -3 -21 -27 -33 -68 -33 -13 0 -24 -8 -27 -20 -3 -13 -14 -20 -30
-20 -13 0 -45 -11 -71 -25 -26 -14 -56 -25 -67 -25 -11 0 -30 -6 -42 -13 -12
-8 -51 -22 -87 -32 -36 -10 -72 -23 -80 -30 -28 -20 -85 -33 -145 -31 -53 1
-60 3 -63 22 -2 15 3 23 17 27 23 6 26 15 11 37 -9 13 -12 12 -25 -5 -8 -11
-22 -28 -31 -37 -19 -19 -12 -48 11 -48 22 0 18 -31 -5 -37 -11 -3 -20 -10
-20 -15 0 -6 -11 -7 -24 -4 -14 3 -28 2 -31 -4 -11 -18 -45 -11 -69 15 l-24
25 19 37 c23 46 26 113 4 113 -8 0 -25 10 -37 22 l-21 21 -24 -29 c-13 -16
-26 -41 -30 -56 -3 -15 -21 -41 -40 -59 -31 -28 -37 -30 -50 -16 -18 17 -5 50
27 67 10 6 22 25 25 44 8 40 57 91 79 83 9 -4 23 -4 31 -1 17 7 20 24 5 24
-13 0 -80 66 -80 79 0 15 27 20 39 8 6 -6 11 -17 11 -24 0 -15 26 -18 34 -4 8
12 -4 41 -16 41 -5 0 -23 13 -41 30 -18 16 -37 30 -44 30 -17 0 -24 15 -17 34
9 23 34 20 34 -4 0 -13 7 -20 20 -20 24 0 28 38 5 46 -23 9 -19 44 5 44 11 0
20 4 20 8 0 17 -60 52 -90 52 -28 0 -30 3 -30 35 0 25 4 35 16 35 9 0 18 -9
21 -20 7 -26 27 -21 31 8 2 15 -2 22 -12 22 -39 0 7 76 56 92 7 3 12 17 10 32
-1 16 4 29 13 32 9 4 15 19 15 40 0 26 -7 39 -35 60 -39 30 -45 53 -15 61 11
3 20 10 20 16 0 5 11 20 26 33 25 24 45 30 57 18 8 -8 -3 -34 -15 -34 -14 0
-58 -43 -58 -57 0 -7 18 -30 41 -52 35 -33 39 -42 30 -59 -16 -30 -14 -49 7
-56 9 -3 23 -9 30 -12 8 -4 10 0 6 10 -9 22 15 47 40 44 17 -2 22 3 24 26 2
18 11 30 23 33 10 3 19 13 19 22 1 18 36 60 66 77 24 14 25 57 2 62 -12 2 -21
-6 -28 -23 -5 -14 -26 -42 -45 -62 -19 -20 -35 -44 -35 -55 0 -10 -7 -18 -15
-18 -8 0 -15 -7 -15 -15 0 -17 -35 -21 -45 -5 -3 6 6 15 20 20 34 13 32 53 -3
58 -27 4 -27 35 1 40 11 2 21 -6 28 -25 l11 -28 24 30 c13 17 24 40 24 52 0
16 8 25 26 29 19 5 24 12 21 25 -3 11 0 19 8 19 7 0 19 7 26 16 11 14 10 19
-10 36 -14 10 -31 23 -39 27 -13 8 -18 23 -21 69 -1 6 -8 12 -16 12 -9 0 -15
9 -15 21 0 11 -8 23 -17 25 -10 3 -26 22 -35 42 -10 20 -23 45 -30 54 -10 14
-8 22 11 49 27 36 31 27 -38 78 -14 10 -21 23 -17 29 10 17 23 15 45 -9 20
-22 41 -18 41 7 0 8 -13 20 -29 25 -17 6 -34 22 -41 40 -15 34 -23 36 -51 8
-22 -22 -52 -19 -43 5 3 8 24 27 47 41 l41 28 -54 48 c-53 47 -53 48 -29 57
13 6 49 33 79 61 59 54 80 63 80 31 0 -11 -4 -20 -8 -20 -4 0 -25 -16 -46 -35
-21 -19 -47 -35 -57 -35 -11 0 -19 -7 -19 -15 0 -20 46 -20 54 0 6 17 32 20
41 4 4 -6 -2 -13 -14 -16 -25 -6 -27 -30 -4 -55 15 -17 15 -19 -2 -32 -21 -15
-14 -46 10 -46 25 0 47 -27 43 -52 -2 -15 2 -23 12 -23 9 0 17 13 20 33 3 18
8 33 13 32 4 0 12 0 17 0 6 0 10 -16 10 -35 0 -24 5 -35 15 -35 25 0 36 36 29
95 -5 43 -12 58 -28 67 -12 6 -24 16 -28 22 -11 15 -28 -12 -28 -43 0 -20 -2
-21 -15 -11 -8 7 -15 25 -15 40 0 16 7 30 15 34 22 8 18 25 -7 35 l-21 8 21
21 c12 12 22 29 22 38 0 9 9 28 21 42 l20 26 -23 17 -23 18 30 33 c17 18 31
35 33 37 1 3 8 -1 14 -7 9 -9 7 -16 -5 -30 -23 -25 -21 -49 4 -55 23 -6 22
-11 -35 -87 l-33 -45 20 -27 c12 -16 27 -28 34 -28 7 0 13 -6 13 -14 0 -20 13
-27 30 -16 12 7 11 12 -4 28 -9 11 -16 26 -15 34 1 7 -1 21 -6 31 -6 14 -1 25
18 43 14 13 38 39 52 58 15 20 36 38 46 41 28 9 21 49 -9 53 -18 3 -23 -2 -28
-27 -8 -40 -44 -44 -44 -5 0 21 8 29 39 41 44 17 69 56 51 78 -9 11 -4 17 19
30 17 8 31 22 31 30 0 22 31 18 37 -5 7 -27 22 -25 33 5 5 14 16 25 24 25 8 0
18 5 21 10 8 13 -63 112 -75 105 -11 -7 -1 -42 16 -56 8 -6 14 -22 14 -35 0
-30 -36 -33 -45 -4 -7 21 -35 28 -35 8 0 -19 -52 -68 -72 -68 -14 0 -16 6 -11
30 3 19 1 30 -6 30 -27 0 -21 33 14 76 30 37 35 48 24 55 -8 5 -17 9 -20 9 -4
0 -9 9 -12 21 -3 11 -15 23 -26 26 -28 7 -26 17 5 31 32 15 30 55 -3 60 -26 4
-32 36 -9 45 16 6 36 -11 36 -31 0 -7 8 -12 18 -10 12 2 17 13 17 36 0 35 17
52 53 52 26 0 31 -30 7 -50 -22 -19 -18 -42 15 -74 24 -24 27 -31 17 -47 -6
-10 -20 -19 -30 -19 -15 0 -17 6 -11 35 7 39 -7 46 -38 18 -24 -21 -23 -27 7
-57 30 -30 32 -68 5 -87 -10 -8 -22 -26 -26 -41 -5 -24 -3 -28 15 -28 22 0 47
43 35 62 -3 5 3 12 15 15 11 3 23 13 26 23 3 10 12 21 20 24 8 3 15 17 15 31
0 14 7 28 15 31 22 9 18 24 -15 56 -16 15 -30 35 -30 43 0 28 30 29 59 1 46
-44 65 -32 34 22 -23 41 -48 55 -73 42 -15 -8 -21 -6 -30 10 -9 17 -7 22 15
30 32 12 32 28 -1 40 -21 8 -25 16 -22 34 4 18 -1 27 -19 35 -24 11 -30 26
-14 35 15 10 39 -4 44 -25 7 -25 27 -25 27 1 0 11 7 23 15 26 8 4 15 12 15 20
0 19 24 18 40 -1 10 -12 10 -15 -3 -15 -8 0 -20 -7 -27 -15 -10 -12 -9 -16 5
-22 11 -4 22 0 30 10 13 18 45 23 45 7 0 -5 -8 -14 -19 -19 -31 -17 -34 -41
-8 -65 13 -12 26 -29 29 -36 6 -18 38 -6 38 15 0 8 -9 15 -20 15 -11 0 -20 7
-20 15 0 8 9 20 20 27 12 8 20 24 20 40 0 23 4 28 24 28 17 0 27 8 35 28 6 15
16 35 23 45 11 16 10 21 -9 37 -30 24 -29 43 2 60 14 7 25 17 25 22 0 5 17 8
38 7 64 -5 137 64 83 78 -34 9 -76 79 -61 103 6 10 12 8 26 -9 21 -24 54 -28
54 -7 0 7 -7 19 -15 26 -19 16 -19 36 0 44 18 7 9 36 -12 36 -8 0 -17 -9 -20
-20 -8 -29 -30 -25 -40 7 l-10 28 -17 -27 c-14 -22 -15 -31 -6 -48 6 -12 9
-33 6 -46 -8 -31 8 -60 45 -83 24 -15 27 -20 16 -30 -9 -6 -27 -8 -46 -5 -28
6 -32 11 -28 30 3 18 -2 25 -26 33 -39 14 -49 6 -47 -38 4 -83 0 -111 -15
-111 -8 0 -23 9 -32 20 -16 18 -43 28 -43 15 0 -3 20 -27 45 -53 42 -43 60
-92 35 -92 -6 0 -16 -11 -22 -25 -13 -29 -28 -32 -49 -7 -8 9 -28 28 -45 42
-17 14 -33 33 -37 43 -3 9 -13 17 -22 17 -8 0 -15 9 -15 20 0 23 25 27 34 5 3
-8 17 -20 31 -25 14 -5 25 -16 25 -24 0 -20 30 -29 37 -11 3 10 -11 30 -41 57
-52 47 -55 53 -26 61 26 7 26 33 1 40 -15 3 -21 -1 -23 -17 -4 -27 -32 -27
-36 1 -3 23 30 53 60 53 11 0 18 7 18 19 0 15 7 18 38 17 l37 -1 3 53 c3 45 0
56 -20 72 -33 28 -49 25 -88 -20 -19 -22 -39 -40 -43 -40 -12 0 3 41 20 58 9
10 11 18 5 24 -13 13 -32 2 -32 -18 0 -8 -5 -12 -10 -9 -21 13 -21 -25 0 -53
29 -38 25 -107 -5 -107 -15 0 -20 7 -20 30 -1 49 -31 85 -72 85 -30 0 -34 3
-31 22 2 13 17 32 35 43 18 11 32 27 33 36 0 9 9 24 20 34 11 10 20 26 20 36
0 10 8 22 18 28 14 8 15 13 5 30 -15 25 -17 65 -3 56 6 -3 10 -17 10 -31 0
-18 5 -24 21 -24 19 0 20 4 15 35 -6 30 -4 35 12 35 11 0 25 -7 32 -15 22 -26
40 -18 40 19 0 21 6 36 15 40 8 3 15 14 15 25 0 14 -8 21 -27 23 -38 4 -43 40
-9 56 29 13 26 36 -5 53 -27 14 -24 30 16 68 19 18 35 37 35 42 0 5 -16 9 -35
9 -35 0 -40 5 -29 34 17 44 104 -17 104 -73 0 -34 26 -44 37 -14 4 9 15 25 25
35 10 10 18 25 18 33 0 8 8 23 19 34 10 10 21 25 25 32 4 11 7 11 12 2 11 -25
98 -113 111 -113 14 0 28 -43 19 -59 -9 -14 11 -23 33 -16 13 4 17 12 13 30
-3 20 1 27 22 35 14 5 26 16 26 25 0 21 -40 19 -56 -2 -12 -17 -15 -16 -41 13
-15 17 -38 36 -50 43 -30 15 -29 39 2 51 16 6 23 14 19 25 -9 22 -41 19 -47
-5 -8 -29 -29 -24 -49 11 -23 39 -23 46 3 54 l21 7 -23 24 c-25 27 -59 32 -59
9 0 -8 9 -15 20 -15 11 0 20 -7 20 -15 0 -8 -9 -15 -20 -15 -11 0 -20 7 -20
15 0 9 -10 19 -22 24 -13 5 -31 18 -41 29 -24 26 -5 40 29 21 21 -11 27 -10
49 11 30 28 31 40 5 47 -15 4 -20 14 -20 37 0 20 -7 35 -20 44 -11 7 -20 18
-20 26 0 16 48 28 57 13 3 -5 10 -2 16 9 8 14 6 21 -11 32 -33 22 -29 45 6 37
22 -4 33 0 50 20 12 14 26 25 32 25 5 0 10 16 10 35 0 24 6 39 20 47 11 7 20
20 20 29 0 19 -104 131 -114 122 -12 -13 -6 -43 10 -43 10 0 14 -7 12 -22 -5
-32 -28 -35 -28 -4 0 16 -6 26 -15 26 -20 0 -19 37 0 48 9 4 15 17 15 28 -1
10 -2 37 -3 60 -2 32 -10 50 -40 84 -28 30 -36 45 -28 53 18 18 56 -7 67 -44
11 -38 37 -46 42 -13 3 21 -16 48 -40 57 -10 3 -10 9 -3 22 16 27 30 23 33 -7
4 -31 5 -32 33 -18 26 15 24 38 -5 46 -27 6 -26 38 2 48 10 4 30 14 46 23 24
13 26 17 14 24 -9 5 -30 22 -48 39 -31 29 -32 31 -15 50 17 19 13 40 -7 40 -6
0 -17 -8 -24 -17 -11 -17 -14 -16 -38 10 -14 15 -26 30 -26 33 0 3 -10 14 -22
25 -31 25 -58 24 -58 -2 0 -23 25 -48 48 -49 16 0 102 -84 102 -99 0 -6 11
-16 25 -21 30 -11 33 -30 5 -30 -10 0 -23 -6 -27 -13 -12 -19 -61 -38 -69 -26
-12 20 6 39 36 39 38 0 40 25 3 35 -21 5 -32 2 -44 -14 -18 -22 -69 -29 -69
-9 0 6 -8 20 -17 31 -13 15 -15 21 -5 24 6 3 12 18 12 34 0 37 -58 99 -94 99
-13 0 -26 7 -30 15 -3 8 -12 15 -20 15 -20 0 -24 17 -18 88 3 42 9 62 18 62
20 0 27 -18 25 -76 -1 -54 10 -74 33 -55 8 7 11 29 8 69 -5 71 8 85 44 47 13
-14 28 -23 34 -20 12 8 0 107 -16 123 -10 10 -8 22 14 65 15 28 33 58 40 66 7
7 10 21 6 30 -16 40 -15 50 6 61 24 13 40 1 40 -28 0 -19 24 -9 28 12 2 11 -4
19 -16 23 -11 3 -22 13 -25 24 -3 12 -14 19 -30 19 -44 0 -57 10 -51 36 5 19
1 26 -22 34 -15 6 -33 9 -41 6 -18 -7 -17 -51 2 -66 20 -16 19 -50 0 -50 -9 0
-27 -11 -41 -25 -21 -21 -29 -23 -40 -14 -19 16 -18 27 6 34 27 9 28 55 1 55
-10 0 -21 -9 -24 -20 -8 -33 -37 -25 -37 10 0 17 4 30 8 30 15 0 112 100 112
115 0 25 -20 17 -61 -25 -45 -46 -49 -48 -49 -20 0 11 4 20 10 20 5 0 12 11
16 24 8 35 38 59 63 51 12 -3 21 -13 21 -21 0 -8 9 -14 20 -14 11 0 20 -4 20
-8 0 -5 8 -17 18 -28 10 -10 21 -27 25 -36 7 -19 47 -25 47 -8 0 5 -8 26 -17
45 -12 25 -26 38 -44 42 -28 5 -30 33 -3 33 8 0 14 4 14 9 0 14 -32 24 -72 22
-42 -3 -54 18 -44 74 6 29 3 37 -19 51 -14 9 -25 25 -25 36 0 11 -10 28 -22
37 -12 10 -18 23 -14 29 12 19 25 14 32 -13 7 -28 6 -27 28 -19 23 9 20 41 -4
49 -11 3 -20 12 -20 20 0 7 -9 15 -21 18 -16 4 -20 12 -17 33 4 39 23 40 34 2
8 -29 14 -33 47 -36 41 -4 48 7 17 26 -11 7 -20 19 -20 27 0 22 37 18 43 -5 7
-27 33 -25 48 3 7 12 16 25 22 28 14 10 1 39 -18 39 -8 0 -15 -7 -15 -15 0 -8
-8 -15 -17 -15 -23 0 -53 29 -53 53 0 18 1 18 25 3 30 -20 45 -20 45 -1 0 8
11 25 25 37 14 12 25 25 25 30 0 5 -11 13 -25 18 -16 6 -25 17 -25 31 0 17 -5
20 -25 17 -17 -4 -25 -1 -25 9 0 7 -7 16 -15 19 -8 4 -15 12 -15 20 0 8 -8 14
-18 14 -10 0 -21 3 -25 6 -9 10 4 34 19 34 8 0 14 9 14 20 0 11 -6 20 -14 20
-16 0 -25 19 -18 38 7 21 32 13 42 -13 5 -14 14 -25 20 -25 16 0 12 -37 -5
-44 -20 -7 -19 -36 0 -36 9 0 18 -7 21 -15 4 -8 15 -15 25 -15 10 0 19 7 19
15 0 8 7 15 15 15 29 0 27 29 -4 59 -18 17 -36 31 -41 31 -6 0 -10 5 -10 11 0
6 -18 29 -40 50 -25 24 -40 48 -40 63 0 13 -7 26 -15 30 -20 7 -19 22 5 46 22
22 37 25 60 10 11 -7 9 -11 -14 -19 -31 -12 -30 -34 2 -39 13 -2 25 4 32 17 6
12 17 21 24 21 8 0 21 11 30 24 8 14 24 27 34 30 11 4 24 18 30 31 11 23 9 27
-12 35 -13 5 -27 14 -31 19 -3 6 -13 11 -22 11 -12 0 -14 -6 -9 -27 20 -81 20
-83 -8 -83 -19 0 -26 5 -26 19 0 11 -4 23 -10 26 -14 9 -66 -19 -62 -33 1 -7
-6 -15 -15 -19 -10 -4 -22 -12 -26 -20 -4 -7 -13 -13 -20 -13 -7 0 -18 -9 -25
-20 -14 -24 -32 -26 -32 -5 0 9 -11 19 -23 24 -34 13 -26 71 9 71 9 0 14 -11
14 -35 0 -28 4 -35 19 -35 17 0 31 18 31 40 0 12 -57 70 -68 70 -4 0 -26 -18
-47 -40 -39 -40 -65 -51 -65 -27 0 7 23 36 51 65 38 37 60 52 79 52 17 0 33 8
43 23 l15 22 20 -25 c22 -26 29 -60 13 -60 -5 0 -13 9 -16 20 -6 19 -25 26
-38 14 -3 -3 -1 -19 5 -35 17 -48 68 -63 68 -21 0 10 10 22 21 27 12 6 22 15
22 20 0 6 -10 14 -22 20 -29 14 -31 70 -1 62 28 -7 35 11 14 34 -26 29 -79 17
-125 -27 -25 -24 -41 -33 -53 -28 -17 7 -17 17 -1 56 5 12 -2 26 -19 43 -15
15 -26 32 -25 38 4 31 -16 77 -52 115 -43 48 -49 71 -19 79 16 4 20 14 20 43
0 45 22 59 44 28 18 -25 12 -44 -15 -51 -15 -4 -20 -12 -17 -29 3 -22 7 -23
78 -22 41 0 83 4 93 8 22 10 24 -19 2 -40 -8 -9 -15 -20 -15 -25 0 -5 7 -12
15 -15 19 -8 20 -44 1 -44 -28 0 -26 -19 4 -51 21 -23 33 -30 40 -23 8 8 6 15
-5 24 -17 14 -20 40 -5 40 6 0 10 11 10 25 0 14 -4 25 -10 25 -19 0 -10 27 20
56 17 16 35 39 40 51 7 18 15 22 37 17 20 -4 38 2 62 20 19 14 41 26 48 26 7
0 13 4 13 9 0 5 9 13 20 16 26 8 25 16 -4 48 -26 28 -56 28 -56 0 0 -20 -34
-12 -38 10 -2 11 6 20 23 27 14 5 28 17 31 25 9 22 25 19 58 -11 28 -27 36
-25 49 11 3 6 15 0 29 -12 34 -32 40 -29 37 15 -4 56 9 71 33 39 13 -18 29
-27 48 -27z m-700 30 c0 -5 -4 -10 -10 -10 -5 0 -10 5 -10 10 0 6 5 10 10 10
6 0 10 -4 10 -10z m-704 -94 c8 -34 1 -61 -16 -61 -10 0 -16 13 -18 43 -2 32
0 42 12 42 9 0 18 -11 22 -24z m630 -37 c10 -17 -13 -36 -27 -22 -12 12 -4 33
11 33 5 0 12 -5 16 -11z m467 -26 c4 -3 2 -12 -4 -19 -12 -15 -49 -2 -49 16 0
11 43 14 53 3z m-767 -50 c-10 -10 -19 5 -10 18 6 11 8 11 12 0 2 -7 1 -15 -2
-18z m322 -75 c18 -18 15 -42 -8 -68 -11 -13 -20 -27 -20 -32 0 -4 -4 -8 -10
-8 -5 0 -10 9 -10 19 0 11 5 23 10 26 6 3 10 22 10 41 0 36 8 42 28 22z m-894
-184 c27 -10 18 -24 -15 -24 -27 0 -30 2 -19 15 14 17 13 17 34 9z m673 -18
c-2 -6 -13 -9 -23 -8 -26 5 -31 12 -15 22 18 10 43 1 38 -14z m-2811 -43 c-8
-8 -36 5 -36 17 0 7 6 7 21 0 11 -7 18 -14 15 -17z m3164 7 c0 -11 -4 -20 -9
-20 -5 0 -26 -17 -47 -38 -49 -48 -92 -68 -100 -47 -9 24 46 83 78 84 17 1 32
9 38 21 6 11 17 20 25 20 8 0 15 -9 15 -20z m-44 -116 c-3 -9 -6 -20 -6 -25 0
-5 -7 -9 -15 -9 -18 0 -20 21 -3 38 17 17 31 15 24 -4z m-116 -49 c0 -26 -14
-33 -25 -15 -9 14 1 40 15 40 5 0 10 -11 10 -25z m-70 -35 c0 -12 -10 -24 -24
-30 -14 -5 -26 -19 -28 -32 -4 -27 -26 -30 -42 -6 -8 14 -3 23 29 52 46 40 65
45 65 16z m-536 -56 c26 -10 20 -44 -7 -44 -39 0 -63 34 -29 43 9 3 18 5 19 6
1 0 8 -2 17 -5z m766 -13 c0 -5 -9 -13 -20 -16 -25 -8 -25 -20 0 -45 20 -20
50 -17 50 5 0 15 27 28 41 19 5 -3 9 -18 9 -35 0 -24 -4 -29 -23 -29 -13 0
-28 -5 -34 -11 -5 -5 -21 -7 -35 -4 -28 7 -88 77 -70 83 6 2 22 12 34 22 25
21 48 26 48 11z m-390 -127 c0 -8 -9 -14 -20 -14 -19 0 -28 28 -13 43 9 9 33
-12 33 -29z m345 -18 c20 -48 50 -55 85 -21 23 22 28 24 33 11 8 -20 43 -21
51 -1 7 19 26 20 26 1 0 -18 -43 -66 -59 -66 -20 0 -12 -32 15 -57 l26 -24
-23 -25 c-25 -26 -39 -18 -39 23 0 12 -4 25 -10 28 -16 10 -12 36 8 51 16 13
16 15 -2 29 -26 20 -36 19 -36 -2 0 -10 -14 -31 -31 -48 -25 -24 -32 -27 -39
-15 -6 8 -10 21 -10 28 0 14 -32 16 -46 2 -6 -6 -21 -6 -42 2 -28 11 -34 10
-42 -2 -17 -26 -12 -60 8 -60 15 0 18 -6 14 -30 -4 -30 -16 -39 -27 -21 -3 5
-16 8 -29 5 -19 -3 -25 1 -30 22 -5 18 -2 32 9 44 11 12 14 26 9 45 -8 34 7
45 64 45 41 0 42 1 42 35 0 32 2 35 31 35 25 0 32 -6 44 -34z m-408 -18 c-3
-8 -6 -5 -6 6 -1 11 2 17 5 13 3 -3 4 -12 1 -19z m633 -43 c0 -14 -4 -25 -10
-25 -5 0 -10 11 -10 25 0 14 5 25 10 25 6 0 10 -11 10 -25z m4 -87 c11 -41 6
-68 -14 -85 -11 -10 -20 -23 -20 -30 0 -7 -7 -13 -15 -13 -8 0 -15 2 -15 4 0
2 -3 11 -6 19 -3 9 3 16 15 20 17 4 21 13 21 49 0 43 5 58 21 58 3 0 9 -10 13
-22z m-639 -26 c-7 -8 -35 7 -35 18 0 6 7 6 20 -2 10 -7 17 -14 15 -16z m455
10 c0 -5 -9 -17 -20 -27 -18 -16 -20 -16 -44 3 -14 10 -22 22 -19 26 10 9 83
7 83 -2z m278 -58 c19 -9 32 -23 32 -35 0 -29 -33 -23 -58 11 -34 45 -27 51
26 24z m-241 -20 c8 -20 -8 -36 -26 -25 -15 10 -8 41 9 41 6 0 13 -7 17 -16z
m-77 -33 c0 -4 12 -20 26 -34 24 -24 26 -47 4 -47 -5 0 -28 -18 -50 -40 -22
-22 -45 -40 -50 -40 -15 0 -12 26 5 40 8 7 15 20 15 30 0 10 7 23 15 30 11 9
13 16 5 24 -18 18 -12 46 10 46 11 0 20 -4 20 -9z m220 -51 c0 -11 -4 -20 -10
-20 -5 0 -10 2 -10 4 0 2 -3 11 -6 20 -4 11 -1 16 10 16 9 0 16 -8 16 -20z
m-762 -87 c-5 -25 -28 -28 -28 -4 0 12 6 21 16 21 9 0 14 -7 12 -17z m622
-154 c0 -12 -7 -19 -19 -19 -19 0 -35 25 -26 40 9 15 45 -2 45 -21z m-393 -55
c-3 -3 -12 -4 -19 -1 -8 3 -5 6 6 6 11 1 17 -2 13 -5z m513 -15 c0 -13 -55
-69 -69 -69 -25 0 -20 24 10 50 35 30 59 38 59 19z m-232 -88 c22 -20 30 -51
12 -51 -5 0 -10 -15 -10 -33 0 -21 -7 -36 -19 -44 -11 -7 -25 -28 -32 -47 -11
-31 -17 -35 -45 -34 -38 1 -47 16 -30 49 8 17 22 25 44 27 l33 3 -5 66 c-7 89
5 103 52 64z m72 -6 c0 -8 -9 -15 -20 -15 -20 0 -26 11 -13 23 12 13 33 7 33
-8z m15 -152 c29 -33 32 -53 8 -52 -22 0 -67 55 -58 69 10 17 25 12 50 -17z
m-18 -149 c1 -5 -2 -16 -7 -24 -8 -13 -12 -13 -27 3 -16 15 -16 19 -3 27 17
11 32 8 37 -6z m233 -112 c0 -10 -11 -28 -25 -40 -14 -12 -25 -31 -25 -43 0
-28 -24 -19 -28 11 -2 14 3 27 12 32 9 5 16 15 16 21 0 17 20 37 37 37 7 0 13
-8 13 -18z m87 3 c1 -5 -1 -16 -6 -24 -8 -12 -12 -12 -25 -2 -24 20 -20 43 6
39 12 -2 23 -7 25 -13z m-39 -88 c2 -10 -4 -20 -15 -24 -10 -3 -26 -14 -36
-25 -24 -25 -37 -23 -37 7 0 14 6 25 13 25 7 0 18 9 25 21 15 24 45 22 50 -4z
m-563 -13 c0 -10 -8 -20 -18 -22 -22 -4 -35 27 -16 39 20 12 34 5 34 -17z m13
-93 c-3 -29 -25 -34 -41 -9 -8 12 -7 21 2 32 19 22 43 8 39 -23z m-3834 -53
c21 -30 20 -38 -4 -38 -11 0 -20 4 -20 9 0 5 -12 12 -27 16 l-28 7 25 13 c33
19 36 19 54 -7z m4185 -27 c9 -6 11 -18 7 -36 -5 -20 -12 -26 -29 -23 -25 3
-34 32 -17 53 14 17 20 18 39 6z m-19 -109 c29 -23 19 -42 -21 -42 -33 0 -48
22 -29 45 16 19 23 19 50 -3z m214 -59 c9 -24 -9 -39 -29 -23 -8 7 -15 19 -15
26 0 20 37 17 44 -3z m-437 -65 c-3 -8 -6 -5 -6 6 -1 11 2 17 5 13 3 -3 4 -12
1 -19z m443 -20 c29 -21 41 -58 19 -58 -6 0 -24 13 -40 29 -49 49 -33 70 21
29z m-470 -58 c0 -5 -4 -10 -10 -10 -5 0 -10 5 -10 10 0 6 5 10 10 10 6 0 10
-4 10 -10z m304 4 c22 -9 10 -24 -20 -24 -23 0 -31 10 -17 23 8 9 17 9 37 1z
m254 -24 c27 -26 28 -40 3 -40 -33 0 -51 -11 -51 -32 0 -11 8 -22 20 -25 21
-6 28 -47 11 -57 -17 -11 -41 6 -41 29 0 26 -29 42 -42 23 -14 -22 -9 -46 11
-53 11 -3 23 -14 26 -24 8 -27 43 -34 50 -10 7 22 18 24 33 6 8 -10 6 -16 -9
-25 -30 -19 -24 -42 11 -42 27 0 51 -22 38 -35 -10 -10 -78 9 -78 21 0 8 -10
14 -23 14 -13 0 -41 17 -65 40 -41 40 -72 51 -72 27 0 -7 9 -18 20 -25 25 -15
26 -40 3 -49 -10 -4 -23 -13 -29 -21 -16 -22 -31 -7 -27 25 3 20 -2 34 -16 47
-33 30 -27 49 12 42 29 -5 35 -3 47 20 8 14 27 35 42 46 21 15 28 28 28 54 0
24 5 34 15 34 9 0 18 7 21 15 8 21 36 19 62 -5z m-288 -46 c15 -38 -5 -62 -31
-38 -11 10 -19 28 -19 41 0 33 37 31 50 -3z m38 -221 c-4 -20 -18 -26 -37 -14
-18 12 -5 31 20 31 14 0 19 -6 17 -17z m229 -26 c4 -8 16 -17 26 -20 11 -4 21
-16 24 -27 3 -11 11 -20 18 -20 14 0 45 -43 45 -62 0 -16 -85 -108 -100 -108
-5 0 -10 -13 -10 -28 0 -20 -9 -35 -30 -50 -16 -12 -34 -22 -40 -22 -16 0 -12
27 5 34 22 8 18 33 -7 50 -20 14 -21 19 -11 47 11 28 9 33 -13 56 -32 32 -26
49 15 45 26 -3 34 0 38 17 3 12 13 21 24 21 14 0 19 7 19 25 0 31 -29 34 -37
5 -3 -11 -14 -20 -24 -20 -12 0 -19 7 -19 20 0 11 6 20 14 20 7 0 19 7 26 15
15 19 27 19 37 2z m-187 -107 c0 -5 -5 -10 -11 -10 -5 0 -7 5 -4 10 3 6 8 10
11 10 2 0 4 -4 4 -10z m-90 -21 c0 -14 -5 -19 -17 -17 -26 5 -29 38 -4 38 15
0 21 -6 21 -21z m460 -41 c0 -10 -7 -18 -15 -18 -11 0 -15 -11 -15 -40 0 -41
-7 -49 -28 -28 -18 18 -14 55 7 70 10 7 22 24 26 37 5 18 9 21 16 10 5 -8 9
-22 9 -31z m-330 -17 c0 -23 -14 -41 -31 -41 -21 0 -25 20 -7 38 14 14 38 16
38 3z m30 -102 c0 -18 -6 -20 -52 -17 -38 2 -54 7 -56 18 -2 13 9 16 53 17 49
1 55 -1 55 -18z m-143 -42 c-7 -21 -32 -13 -35 11 -3 21 -1 22 18 12 12 -6 19
-17 17 -23z m98 -32 c0 -28 -29 -25 -33 3 -3 19 0 23 15 20 10 -2 18 -12 18
-23z m-218 -79 c-8 -20 -43 -21 -51 -1 -4 10 2 19 17 24 26 10 42 -1 34 -23z
m353 14 c0 -15 -7 -20 -25 -20 -24 0 -34 18 -18 33 15 15 43 7 43 -13z m-200
-15 c0 -27 -18 -33 -38 -13 -20 20 -14 38 13 38 20 0 25 -5 25 -25z m-82 -38
c4 -20 -25 -34 -40 -19 -15 15 -1 44 19 40 10 -2 19 -11 21 -21z m-168 -31 c0
-8 -4 -18 -10 -21 -5 -3 -10 3 -10 14 0 12 5 21 10 21 6 0 10 -6 10 -14z m-16
-51 c-4 -8 -8 -15 -10 -15 -2 0 -4 7 -4 15 0 8 4 15 10 15 5 0 7 -7 4 -15z
m111 -55 c3 -5 1 -10 -4 -10 -6 0 -11 5 -11 10 0 6 2 10 4 10 3 0 8 -4 11 -10z
m-147 -60 c23 -31 29 -60 12 -60 -5 0 -10 4 -10 9 0 6 -13 18 -30 28 -33 19
-41 53 -12 53 10 0 28 -13 40 -30z m626 -5 l19 -35 -33 -30 c-19 -17 -38 -30
-43 -30 -15 0 -86 73 -81 82 3 5 19 -1 35 -12 35 -26 53 -18 45 21 -5 26 2 36
29 38 6 1 19 -15 29 -34z m-229 -17 c28 -13 36 -62 10 -72 -15 -5 -45 18 -45
35 0 5 -7 9 -15 9 -8 0 -15 6 -15 13 0 29 23 34 65 15z m-388 -83 c8 -9 12
-23 9 -32 -6 -14 -9 -14 -26 5 -34 36 -18 61 17 27z m250 4 c16 -16 5 -39 -18
-39 -12 0 -19 7 -19 18 0 31 17 41 37 21z m-61 -29 c21 0 17 -38 -6 -50 -23
-12 -17 -36 11 -43 10 -3 19 -11 19 -19 0 -10 -10 -13 -35 -10 -19 2 -35 7
-35 11 0 5 -11 13 -25 19 -28 13 -33 40 -9 49 8 3 20 17 25 30 6 17 14 23 25
19 9 -3 22 -6 30 -6z m-46 -129 c0 -5 -7 -14 -16 -22 -13 -10 -17 -10 -24 1
-5 8 -6 18 -4 22 7 11 44 10 44 -1z m58 -88 c-22 -23 -78 -32 -78 -13 0 5 17
25 38 44 37 34 37 34 49 13 10 -19 8 -26 -9 -44z m90 3 c6 -28 -13 -40 -32
-21 -13 14 -14 20 -5 31 15 18 33 13 37 -10z m70 -39 c2 -12 -3 -17 -17 -17
-23 0 -24 1 -15 25 8 19 28 15 32 -8z m-120 -44 c-5 -26 -38 -29 -38 -4 0 15
6 21 21 21 14 0 19 -5 17 -17z m-270 -34 c3 -17 -23 -33 -39 -23 -5 3 -9 14
-9 25 0 15 6 20 22 17 13 -2 24 -10 26 -19z m202 -2 c0 -7 -9 -30 -20 -52 -11
-22 -20 -49 -20 -61 0 -17 -5 -20 -25 -16 -31 6 -35 46 -5 62 14 8 20 21 20
45 0 31 3 35 25 35 14 0 25 -6 25 -13z m-154 -78 c10 -17 -13 -36 -27 -22 -12
12 -4 33 11 33 5 0 12 -5 16 -11z m-49 -96 c-16 -17 -37 -10 -37 12 0 8 8 18
17 24 25 14 41 -15 20 -36z m-567 17 c0 -5 -2 -10 -4 -10 -3 0 -8 5 -11 10 -3
6 -1 10 4 10 6 0 11 -4 11 -10z m643 -34 c3 -8 -1 -20 -9 -26 -12 -10 -14 -8
-14 14 0 28 14 35 23 12z m-720 -46 c-3 -11 -14 -20 -24 -20 -24 0 -25 16 -1
29 25 15 31 13 25 -9z m797 -65 c15 -18 6 -47 -14 -39 -15 6 -28 39 -18 48 9
10 19 7 32 -9z m-811 -4 c17 -11 7 -41 -13 -41 -19 0 -29 17 -22 35 6 17 15
18 35 6z m519 -53 c4 -19 -65 -91 -81 -85 -21 7 -17 24 13 66 32 43 62 52 68
19z m262 -33 c16 -19 3 -55 -20 -55 -25 0 -32 13 -24 45 7 28 25 33 44 10z
m-260 -70 c0 -9 -11 -21 -25 -27 -14 -6 -25 -17 -25 -24 0 -16 -31 -27 -43
-15 -14 14 0 41 22 41 10 0 21 9 24 20 6 24 47 28 47 5z m468 -15 c26 -34 22
-50 -13 -50 -19 0 -25 -6 -29 -32 -3 -18 -4 -48 -4 -66 1 -18 -4 -38 -10 -44
-21 -21 -36 8 -38 73 -1 49 -5 63 -23 75 -22 15 -29 44 -11 44 6 0 19 -9 30
-20 29 -29 50 -26 50 8 0 50 15 54 48 12z m-260 -25 c-2 -14 -7 -26 -13 -26
-5 0 -11 12 -13 26 -2 18 1 25 13 25 12 0 15 -7 13 -25z m-658 -12 c0 -25 -1
-26 -20 -8 -21 19 -18 35 6 35 9 0 14 -10 14 -27z m600 -22 c0 -22 -13 -39
-26 -34 -22 8 -17 43 6 43 11 0 20 -4 20 -9z m160 -11 c0 -15 -7 -20 -25 -20
-18 0 -25 -5 -25 -20 0 -15 -7 -20 -25 -20 -16 0 -25 6 -25 15 0 9 11 21 25
27 14 6 25 17 25 25 0 7 11 13 25 13 18 0 25 -5 25 -20z m18 -102 c20 -20 14
-40 -10 -36 -15 2 -24 11 -26 26 -4 24 16 30 36 10z m-260 -91 c2 -11 -3 -17
-17 -17 -23 0 -35 15 -26 31 10 15 39 6 43 -14z m309 -4 c-11 -11 -20 -13 -33
-5 -18 10 -17 11 6 20 32 12 46 4 27 -15z m72 -59 c2 -2 1 -10 -2 -19 -4 -10
-19 -15 -44 -15 -24 0 -45 -7 -60 -21 -19 -19 -25 -20 -38 -9 -14 12 -13 16
12 37 39 33 63 42 98 36 17 -3 32 -7 34 -9z m-189 -7 c0 -7 -5 -18 -11 -24 -9
-9 -9 -19 1 -42 13 -33 7 -51 -18 -51 -11 0 -21 13 -29 37 -10 33 -9 40 10 64
23 30 47 38 47 16z m-91 -80 c19 -23 18 -61 -1 -65 -11 -2 -18 3 -18 11 0 14
-20 27 -40 27 -5 0 -12 -9 -15 -20 -8 -25 -48 -28 -43 -4 2 9 12 22 23 28 11
6 24 17 28 24 11 16 52 16 66 -1z m-19 -97 c0 -15 -7 -20 -25 -20 -24 0 -34
18 -18 33 15 15 43 7 43 -13z m-123 -12 c-3 -8 -6 -5 -6 6 -1 11 2 17 5 13 3
-3 4 -12 1 -19z m81 -90 c-2 -13 -10 -23 -18 -23 -8 0 -16 10 -18 23 -3 17 2
22 18 22 16 0 21 -5 18 -22z m232 -33 c0 -8 -11 -22 -25 -31 -14 -9 -25 -22
-25 -29 0 -7 -7 -15 -15 -19 -10 -3 -15 -19 -15 -46 l0 -40 -25 16 c-30 20
-32 48 -5 71 11 10 20 23 20 29 0 6 9 23 21 38 22 28 69 36 69 11z m-770 -57
c18 -31 18 -48 -1 -48 -5 0 -9 7 -9 15 0 8 -9 15 -20 15 -12 0 -20 -7 -20 -17
0 -9 -2 -14 -5 -12 -2 3 -2 22 2 42 7 46 27 48 53 5z m640 -113 c0 -16 -6 -25
-15 -25 -28 0 -18 40 13 49 1 1 2 -10 2 -24z m-415 -5 c3 -5 1 -10 -4 -10 -6
0 -11 5 -11 10 0 6 2 10 4 10 3 0 8 -4 11 -10z m75 -61 c0 -6 -4 -7 -10 -4 -5
3 -10 11 -10 16 0 6 5 7 10 4 6 -3 10 -11 10 -16z m350 1 c13 -9 13 -11 0 -20
-21 -14 -40 -12 -40 3 0 26 16 33 40 17z m-495 -70 c3 -5 1 -10 -4 -10 -6 0
-11 5 -11 10 0 6 2 10 4 10 3 0 8 -4 11 -10z m423 -53 c3 -12 -3 -17 -22 -17
-25 0 -35 18 -19 34 12 12 38 2 41 -17z m-274 -163 c6 -15 9 -15 32 1 40 26
49 4 13 -31 l-31 -29 -15 23 c-9 12 -22 22 -30 22 -13 0 -13 3 -3 15 16 19 26
19 34 -1z m111 -114 c0 -8 -8 -16 -17 -18 -13 -2 -18 3 -18 18 0 15 5 20 18
18 9 -2 17 -10 17 -18z m-114 -43 c-10 -28 -37 -30 -33 -2 4 22 21 37 34 29 4
-3 3 -15 -1 -27z m75 -166 c-4 -6 -13 -11 -21 -11 -25 0 -34 -32 -17 -58 14
-21 14 -25 -1 -40 -22 -22 -33 -8 -41 51 -5 40 -3 49 12 54 9 4 23 15 31 26
12 17 15 17 28 4 9 -8 12 -20 9 -26z m131 -187 c3 -8 -4 -25 -17 -39 -26 -28
-21 -55 11 -55 12 0 23 -8 26 -20 3 -11 14 -20 23 -20 19 0 36 33 25 49 -3 6
4 15 15 21 17 9 20 8 20 -9 0 -11 3 -26 6 -35 4 -12 0 -16 -15 -16 -24 0 -29
-28 -6 -36 8 -4 15 -15 15 -25 0 -11 -7 -22 -15 -25 -8 -4 -15 -13 -15 -20 0
-8 7 -17 15 -20 16 -7 21 -44 6 -44 -11 0 -71 55 -71 65 0 4 10 15 23 25 l22
18 -24 26 c-32 34 -55 35 -47 1 5 -18 1 -27 -14 -35 -31 -17 -42 -3 -34 45 5
38 3 44 -15 50 -24 7 -29 45 -6 45 10 0 15 10 15 28 0 16 3 32 7 35 12 13 44
7 50 -9z m-108 -133 c17 -11 7 -45 -12 -39 -13 5 -23 48 -10 48 4 0 14 -4 22
-9z m-64 -56 c0 -11 -8 -21 -17 -23 -14 -3 -18 3 -18 23 0 20 4 26 18 23 9 -2
17 -12 17 -23z m345 4 c0 -12 -8 -23 -20 -26 -11 -3 -20 -14 -20 -24 0 -25
-16 -25 -23 0 -3 11 5 29 20 45 29 31 43 33 43 5z m-266 -90 c-9 -15 -34 -10
-41 7 -9 23 19 38 34 17 7 -9 10 -20 7 -24z m-747 -71 c-3 -8 -6 -5 -6 6 -1
11 2 17 5 13 3 -3 4 -12 1 -19z m723 -92 c0 -3 -11 -6 -25 -6 -14 0 -25 5 -25
11 0 6 -10 19 -22 28 -14 12 -19 24 -14 36 6 15 12 12 46 -23 22 -22 40 -43
40 -46z m-630 4 c0 -5 -7 -10 -16 -10 -8 0 -12 5 -9 10 3 6 10 10 16 10 5 0 9
-4 9 -10z m190 0 c0 -5 -5 -10 -11 -10 -5 0 -7 5 -4 10 3 6 8 10 11 10 2 0 4
-4 4 -10z m353 -17 c4 -3 2 -12 -4 -20 -9 -10 -15 -10 -25 -2 -8 6 -14 15 -14
20 0 10 34 12 43 2z m-123 -62 c0 -16 -7 -34 -15 -41 -21 -17 -44 32 -25 55
20 25 40 18 40 -14z m204 17 c-4 -7 -15 -22 -24 -33 -10 -11 -21 -30 -25 -43
-3 -12 -15 -27 -25 -32 -11 -6 -17 -17 -14 -25 4 -8 -1 -18 -10 -21 -9 -4 -16
-18 -16 -34 0 -34 -26 -47 -40 -20 -12 22 -13 50 -2 50 4 0 13 4 21 9 11 7 10
13 -5 35 -17 26 -16 28 3 47 l20 21 6 -32 c7 -35 27 -32 27 4 0 29 48 85 73
86 12 0 16 -4 11 -12z m-191 -105 c9 -9 -12 -33 -29 -33 -8 0 -14 9 -14 20 0
19 28 28 43 13z m9 -113 c24 -24 27 -31 14 -36 -19 -7 -76 32 -76 52 0 23 30
16 62 -16z m-135 -34 c-4 -9 -16 -16 -27 -16 -25 0 -28 37 -2 43 23 5 36 -8
29 -27z m233 -22 c0 -14 -21 -19 -33 -7 -9 9 13 34 24 27 5 -3 9 -12 9 -20z
m70 1 c0 -8 -6 -15 -14 -15 -17 0 -28 14 -19 24 12 12 33 6 33 -9z m-493 -1
c-3 -3 -12 -4 -19 -1 -8 3 -5 6 6 6 11 1 17 -2 13 -5z m358 -34 c9 -15 -22
-60 -40 -60 -15 0 -22 50 -8 63 10 11 41 8 48 -3z m65 -51 c0 -10 -7 -19 -15
-19 -15 0 -21 31 -9 43 11 10 24 -3 24 -24z m-165 -75 c0 -10 -8 -20 -17 -22
-18 -3 -26 27 -11 42 12 11 28 0 28 -20z m88 -16 c-2 -34 -55 -88 -87 -88 -37
0 -33 15 22 71 50 52 68 57 65 17z m77 7 c0 -26 -14 -33 -25 -15 -9 14 1 40
15 40 5 0 10 -11 10 -25z m-23 -77 c13 -12 23 -27 23 -34 0 -6 7 -14 15 -18
21 -8 18 -26 -10 -61 -25 -30 -25 -30 -31 -7 -8 27 -22 28 -49 2 -91 -88 -109
-97 -117 -56 -6 31 8 46 43 46 18 0 30 6 34 19 3 10 15 21 25 24 11 3 20 10
20 16 0 14 -37 15 -45 1 -8 -13 -45 -13 -45 -1 0 5 8 12 18 15 9 4 31 22 47
40 36 41 42 42 72 14z m181 -163 c10 -21 9 -26 -8 -35 -10 -6 -22 -26 -26 -45
-7 -41 -19 -51 -39 -35 -21 17 -19 37 5 57 11 10 20 25 20 34 0 50 30 65 48
24z m-538 -27 c0 -13 -37 -28 -69 -28 -36 0 -39 12 -12 39 17 17 24 18 50 8
17 -6 31 -15 31 -19z m310 -33 c0 -8 -14 -21 -30 -30 -29 -15 -30 -16 -15 -45
19 -37 2 -50 -29 -21 -28 27 -40 26 -59 -1 -14 -20 -18 -21 -26 -8 -15 21 -8
34 17 38 14 2 22 11 22 23 0 12 7 19 20 19 11 0 28 9 37 20 20 23 63 27 63 5z
m104 -78 c8 -13 7 -20 -4 -27 -20 -12 -30 -3 -30 26 0 28 17 28 34 1z m154
-42 c2 -2 1 -9 -3 -15 -4 -6 -25 -9 -53 -6 -26 3 -51 5 -57 6 -5 0 -1 8 10 16
14 11 32 14 60 9 21 -3 41 -8 43 -10z m-430 -33 c2 -7 -4 -15 -13 -18 -21 -8
-40 17 -22 28 15 10 30 5 35 -10z m90 1 c5 -17 -26 -29 -40 -15 -6 6 -7 15 -3
22 9 14 37 9 43 -7z"/>
<path d="M8265 9430 c-4 -7 -3 -16 3 -22 14 -14 45 -2 40 15 -6 16 -34 21 -43
7z"/>
<path d="M8119 9386 c-1 -14 -2 -30 -3 -36 -2 -15 68 -62 73 -49 2 7 -6 19
-17 28 -11 9 -22 29 -24 45 -4 38 -27 47 -29 12z"/>
<path d="M8192 9383 c4 -20 18 -26 37 -14 18 12 5 31 -20 31 -14 0 -19 -6 -17
-17z"/>
<path d="M8270 9346 c0 -24 16 -27 35 -6 18 19 17 20 -8 20 -17 0 -27 -5 -27
-14z"/>
<path d="M8035 9309 c-65 -64 -63 -63 -111 -60 -40 2 -45 0 -42 -16 2 -13 15
-19 52 -24 34 -4 53 -12 66 -29 20 -27 40 -19 40 17 0 22 3 25 30 21 39 -6 60
16 31 32 -15 8 -21 21 -21 45 0 40 -14 44 -45 14z"/>
<path d="M8443 9293 c-13 -5 -19 -53 -7 -53 15 0 44 22 44 34 0 16 -19 25 -37
19z"/>
<path d="M8270 9230 c-9 -16 -8 -22 5 -26 21 -8 39 10 32 30 -9 22 -24 20 -37
-4z"/>
<path d="M7692 9158 c2 -17 11 -24 32 -26 39 -5 57 15 32 34 -11 8 -31 14 -44
14 -19 0 -23 -5 -20 -22z"/>
<path d="M7880 9117 c0 -37 6 -51 31 -78 18 -19 38 -47 46 -64 23 -49 40 -76
47 -76 27 3 36 -2 36 -19 0 -13 7 -20 20 -20 23 0 27 28 5 36 -18 7 -20 44 -2
44 7 0 23 13 35 30 26 34 30 80 7 80 -8 0 -15 9 -15 20 0 23 -22 26 -40 5 -10
-12 -8 -16 14 -25 32 -12 32 -15 -1 -64 -15 -23 -28 -42 -29 -44 0 -1 -9 0
-18 4 -9 3 -16 17 -16 30 0 13 -9 28 -20 34 -11 6 -20 17 -20 24 0 8 9 16 20
19 22 6 28 37 6 37 -7 0 -19 -7 -26 -15 -7 -8 -21 -15 -32 -15 -17 0 -19 4
-13 23 15 47 11 72 -12 75 -21 3 -23 -1 -23 -41z"/>
<path d="M8258 9127 c-9 -7 -20 -25 -23 -40 -5 -17 -16 -29 -31 -33 -20 -5
-22 -9 -13 -20 6 -8 21 -14 33 -14 12 0 27 -9 34 -20 15 -24 50 -26 59 -4 3 9
1 25 -6 35 -10 17 -8 19 19 19 35 0 43 29 10 37 -11 3 -20 11 -20 19 0 7 -9
18 -19 24 -24 12 -22 12 -43 -3z"/>
<path d="M8120 9074 c0 -9 7 -14 17 -12 25 5 28 28 4 28 -12 0 -21 -6 -21 -16z"/>
<path d="M7687 9073 c-15 -14 -6 -23 23 -23 20 0 30 5 30 15 0 15 -40 21 -53
8z"/>
<path d="M8154 8964 c3 -9 6 -18 6 -20 0 -2 9 -4 20 -4 13 0 20 7 20 20 0 15
-7 20 -26 20 -20 0 -25 -4 -20 -16z"/>
<path d="M8160 8878 c1 -20 36 -58 54 -58 23 0 26 13 7 36 -21 27 -61 41 -61
22z"/>
<path d="M8357 8772 c-16 -17 -14 -32 4 -32 11 0 39 30 39 41 0 15 -26 10 -43
-9z"/>
<path d="M8550 8750 c0 -5 5 -10 11 -10 5 0 7 5 4 10 -3 6 -8 10 -11 10 -2 0
-4 -4 -4 -10z"/>
<path d="M7943 8706 c-50 -51 -47 -60 43 -158 19 -21 41 -38 49 -38 29 0 14
37 -35 87 -27 28 -50 55 -50 59 0 5 17 25 37 46 36 37 36 38 13 38 -15 0 -38
-14 -57 -34z"/>
<path d="M8040 8730 c0 -6 15 -27 34 -48 29 -31 36 -34 41 -20 9 22 -33 78
-57 78 -10 0 -18 -5 -18 -10z"/>
<path d="M8004 8655 c-4 -10 13 -33 47 -66 49 -45 54 -48 57 -28 3 20 -27 59
-46 59 -5 0 -14 11 -20 25 -13 28 -30 32 -38 10z"/>
<path d="M8204 8656 c-7 -19 3 -36 22 -36 10 0 14 8 12 22 -4 26 -26 36 -34
14z"/>
<path d="M8317 8655 c-4 -8 -2 -17 3 -20 13 -8 40 6 40 21 0 19 -36 18 -43 -1z"/>
<path d="M8120 8616 c0 -27 15 -42 25 -26 8 13 -3 50 -16 50 -5 0 -9 -11 -9
-24z"/>
<path d="M8471 8594 c0 -11 3 -14 6 -6 3 7 2 16 -1 19 -3 4 -6 -2 -5 -13z"/>
<path d="M8004 8455 c4 -11 -3 -19 -20 -25 -33 -13 -22 -30 21 -30 41 0 59 35
29 57 -24 17 -37 17 -30 -2z"/>
<path d="M8535 8440 c3 -5 10 -10 16 -10 5 0 9 5 9 10 0 6 -7 10 -16 10 -8 0
-12 -4 -9 -10z"/>
<path d="M8317 8415 c-4 -8 -2 -17 3 -20 13 -8 40 6 40 21 0 19 -36 18 -43 -1z"/>
<path d="M8288 8379 c-10 -5 -18 -19 -18 -30 0 -11 -7 -22 -15 -25 -36 -14 5
-74 50 -74 22 0 19 18 -5 25 -28 9 -25 40 6 54 17 8 24 17 20 27 -3 9 -6 20
-6 25 0 12 -10 11 -32 -2z"/>
<path d="M8143 8294 c-13 -14 -23 -32 -23 -40 0 -20 -17 -17 -41 7 -11 11 -26
18 -32 16 -22 -7 -18 -33 8 -45 14 -6 25 -18 25 -27 0 -8 7 -15 15 -15 8 0 15
9 15 20 0 13 7 20 20 20 14 0 20 7 20 21 0 13 8 23 20 26 12 3 20 12 18 21 -5
25 -21 23 -45 -4z"/>
<path d="M8346 8211 c-4 -5 -2 -12 3 -15 5 -4 12 -2 15 3 4 5 2 12 -3 15 -5 4
-12 2 -15 -3z"/>
<path d="M8041 8181 c-19 -12 -6 -43 16 -39 10 2 18 12 18 22 0 22 -14 29 -34
17z"/>
<path d="M8295 8160 c3 -5 11 -10 16 -10 6 0 7 5 4 10 -3 6 -11 10 -16 10 -6
0 -7 -4 -4 -10z"/>
<path d="M8235 8120 c3 -5 8 -10 11 -10 2 0 4 5 4 10 0 6 -5 10 -11 10 -5 0
-7 -4 -4 -10z"/>
<path d="M8658 8103 c7 -3 16 -2 19 1 4 3 -2 6 -13 5 -11 0 -14 -3 -6 -6z"/>
<path d="M8090 7980 c0 -11 4 -20 10 -20 5 0 12 -11 16 -25 7 -28 22 -33 30
-11 6 15 -33 76 -48 76 -4 0 -8 -9 -8 -20z"/>
<path d="M8187 7987 c-3 -8 -1 -20 4 -28 16 -26 9 -57 -17 -76 -17 -13 -26
-29 -26 -46 0 -20 -6 -27 -27 -29 -17 -2 -29 -11 -35 -29 -7 -22 -4 -33 19
-64 l29 -37 48 53 c26 29 48 56 48 60 0 4 11 10 25 13 21 5 24 10 18 36 -3 18
-1 30 5 30 6 0 14 9 17 21 6 16 -3 31 -36 65 -45 46 -63 53 -72 31z m-40 -241
c-4 -9 -11 -16 -17 -16 -11 0 -14 33 -3 43 11 11 26 -10 20 -27z"/>
<path d="M8010 7976 c0 -7 7 -19 15 -26 8 -7 15 -21 15 -31 0 -26 16 -32 34
-13 23 23 20 37 -14 62 -34 25 -50 28 -50 8z"/>
<path d="M8195 7640 c3 -5 8 -10 11 -10 2 0 4 5 4 10 0 6 -5 10 -11 10 -5 0
-7 -4 -4 -10z"/>
<path d="M8153 7470 c5 -19 -26 -67 -60 -95 -9 -7 -9 -15 -3 -25 8 -12 19 -5
64 40 45 47 52 58 45 78 -11 29 -54 32 -46 2z"/>
<path d="M8188 7354 c-37 -24 -51 -54 -25 -54 15 0 26 8 55 42 31 35 16 41
-30 12z"/>
<path d="M8044 7289 c-10 -16 23 -46 36 -33 6 6 8 18 4 27 -7 19 -29 22 -40 6z"/>
<path d="M8185 7240 c-3 -5 -1 -10 4 -10 6 0 11 5 11 10 0 6 -2 10 -4 10 -3 0
-8 -4 -11 -10z"/>
<path d="M8117 7213 c-13 -12 -7 -41 12 -64 23 -29 17 -63 -9 -49 -19 10 -30
4 -30 -15 0 -24 43 -33 80 -17 46 19 45 17 26 47 -14 21 -15 29 -6 41 10 11 8
15 -6 21 -11 4 -25 15 -32 25 -14 19 -24 22 -35 11z"/>
<path d="M7960 7171 c0 -13 26 -32 33 -24 14 13 6 33 -13 33 -11 0 -20 -4 -20
-9z"/>
<path d="M8680 7070 c0 -5 5 -10 10 -10 6 0 10 5 10 10 0 6 -4 10 -10 10 -5 0
-10 -4 -10 -10z"/>
<path d="M8327 7043 c-8 -7 11 -33 24 -33 5 0 9 9 9 20 0 19 -20 27 -33 13z"/>
<path d="M8243 6983 c-19 -7 -16 -16 15 -51 33 -36 62 -42 62 -12 0 11 -7 20
-15 20 -9 0 -20 11 -25 25 -10 25 -15 28 -37 18z"/>
<path d="M8938 6853 c7 -3 16 -2 19 1 4 3 -2 6 -13 5 -11 0 -14 -3 -6 -6z"/>
<path d="M8740 6669 c0 -5 5 -7 10 -4 6 3 10 8 10 11 0 2 -4 4 -10 4 -5 0 -10
-5 -10 -11z"/>
<path d="M8354 6659 c-7 -12 15 -31 31 -26 6 2 11 11 13 20 4 19 -32 24 -44 6z"/>
<path d="M8626 6661 c-8 -13 20 -45 32 -37 20 12 14 46 -7 46 -11 0 -22 -4
-25 -9z"/>
<path d="M8338 6559 c-15 -17 -28 -38 -30 -47 -6 -29 -32 -19 -38 13 -4 25
-10 30 -38 33 -22 2 -32 -1 -32 -10 0 -19 37 -58 55 -58 8 0 15 -9 15 -20 0
-21 24 -27 35 -9 4 5 18 15 32 20 21 8 24 15 21 39 -4 26 -1 30 19 30 26 0 32
25 7 34 -20 8 -15 10 -46 -25z"/>
<path d="M8500 6546 c0 -7 6 -19 13 -25 11 -8 18 -6 31 8 15 17 15 19 1 25
-27 10 -45 7 -45 -8z"/>
<path d="M8277 6386 c-6 -16 16 -40 26 -29 4 3 7 15 7 25 0 21 -25 24 -33 4z"/>
<path d="M8386 6345 c-4 -14 -13 -25 -20 -25 -8 0 -16 -9 -19 -20 -7 -28 -36
-25 -47 5 -11 28 -31 32 -50 10 -19 -23 -4 -45 30 -45 36 0 37 -6 5 -36 -23
-21 -65 -24 -65 -3 0 5 -6 9 -14 9 -10 0 -14 -15 -13 -62 0 -59 3 -65 39 -102
29 -30 38 -47 38 -73 0 -30 3 -34 23 -31 20 3 22 8 20 51 -3 43 0 49 22 57 26
10 35 40 11 40 -7 0 -19 6 -26 14 -9 12 -6 19 14 37 l26 23 -27 22 c-27 21
-27 23 -8 30 11 4 36 23 55 41 19 18 38 33 43 33 14 0 7 38 -9 44 -22 8 -21 9
-28 -19z"/>
<path d="M8156 6081 c-7 -10 34 -80 47 -81 16 0 19 32 3 49 -9 10 -16 23 -16
29 0 14 -26 16 -34 3z"/>
<path d="M8580 5939 c0 -5 5 -7 10 -4 6 3 10 8 10 11 0 2 -4 4 -10 4 -5 0 -10
-5 -10 -11z"/>
<path d="M8437 5933 c-10 -9 -9 -43 1 -43 15 0 30 22 25 36 -6 15 -16 18 -26
7z"/>
<path d="M8269 5906 c-9 -20 -8 -27 9 -44 19 -19 19 -19 35 7 11 19 13 31 6
44 -14 24 -38 21 -50 -7z"/>
<path d="M8317 5814 c-11 -11 5 -34 24 -34 12 0 19 7 19 20 0 19 -28 28 -43
14z"/>
<path d="M8594 5769 c-3 -6 0 -18 9 -26 17 -18 39 -9 31 12 -7 18 -32 27 -40
14z"/>
<path d="M8081 5680 c-5 -16 -17 -30 -25 -30 -23 0 -20 -21 4 -27 11 -3 20
-11 20 -18 0 -8 -9 -17 -20 -20 -11 -3 -20 -15 -20 -26 0 -12 7 -19 20 -19 15
0 20 7 20 26 0 33 33 30 38 -4 4 -26 17 -29 30 -6 5 8 21 24 37 34 31 20 31
20 -22 36 -23 6 -14 24 12 24 26 0 29 7 19 34 -9 23 -41 20 -47 -4 -7 -28 -24
-25 -31 5 -9 33 -22 32 -35 -5z"/>
<path d="M8350 5605 c0 -16 9 -19 34 -9 25 9 19 24 -9 24 -16 0 -25 -6 -25
-15z"/>
<path d="M8257 5550 c-22 -21 -27 -33 -19 -45 8 -15 13 -13 40 16 54 57 33 85
-21 29z"/>
<path d="M7971 5536 c-10 -12 -7 -21 19 -46 18 -17 37 -29 43 -27 12 4 11 57
-1 68 -17 16 -50 19 -61 5z"/>
<path d="M8310 5484 c-60 -62 -63 -64 -77 -44 -16 23 -38 26 -46 6 -7 -17 1
-26 24 -26 9 0 19 -7 23 -15 10 -26 29 -16 99 50 69 67 77 79 53 88 -8 3 -39
-20 -76 -59z"/>
<path d="M8150 5366 c-5 -13 -14 -26 -21 -28 -7 -2 -10 -11 -6 -22 6 -15 9
-15 39 6 18 13 34 23 36 24 1 1 0 8 -4 17 -10 27 -34 29 -44 3z"/>
<path d="M8316 5375 c-3 -8 3 -19 14 -25 22 -12 33 0 24 24 -8 20 -30 21 -38
1z"/>
<path d="M8035 5330 c-3 -5 -3 -26 1 -46 5 -29 3 -38 -15 -50 -11 -8 -21 -24
-21 -34 0 -26 30 -14 63 26 21 25 25 37 20 72 -4 32 -10 42 -24 42 -10 0 -21
-4 -24 -10z"/>
<path d="M8252 5235 c-31 -30 -32 -34 -16 -43 13 -7 24 -2 51 24 32 32 36 56
10 53 -7 -1 -27 -16 -45 -34z"/>
<path d="M8120 5241 c0 -12 6 -21 16 -21 9 0 14 7 12 17 -5 25 -28 28 -28 4z"/>
<path d="M8431 5104 c0 -11 3 -14 6 -6 3 7 2 16 -1 19 -3 4 -6 -2 -5 -13z"/>
<path d="M8208 4879 c-19 -11 -24 -34 -9 -43 18 -11 41 6 41 30 0 26 -6 29
-32 13z"/>
<path d="M8086 4863 c-8 -19 8 -38 23 -29 16 10 13 46 -3 46 -8 0 -17 -8 -20
-17z"/>
<path d="M8105 4760 c3 -5 8 -10 11 -10 2 0 4 5 4 10 0 6 -5 10 -11 10 -5 0
-7 -4 -4 -10z"/>
<path d="M8161 4707 c-6 -8 -8 -16 -5 -19 10 -10 44 4 44 18 0 18 -24 18 -39
1z"/>
<path d="M8436 4685 c-3 -8 -1 -15 4 -15 6 0 10 7 10 15 0 8 -2 15 -4 15 -2 0
-6 -7 -10 -15z"/>
<path d="M7977 4643 c-13 -12 -7 -33 8 -33 8 0 15 9 15 20 0 20 -11 26 -23 13z"/>
<path d="M7856 4554 c-8 -21 1 -34 24 -34 22 0 53 28 45 41 -10 15 -62 10 -69
-7z"/>
<path d="M7922 4398 c5 -34 38 -37 38 -4 0 20 -5 26 -21 26 -15 0 -20 -5 -17
-22z"/>
<path d="M8190 4380 c0 -5 5 -10 11 -10 5 0 7 5 4 10 -3 6 -8 10 -11 10 -2 0
-4 -4 -4 -10z"/>
<path d="M8037 4364 c-10 -10 17 -44 35 -44 19 0 22 8 12 34 -6 16 -35 22 -47
10z"/>
<path d="M7887 4326 c-6 -16 51 -78 66 -73 23 7 19 37 -6 46 -13 5 -31 16 -39
25 -13 12 -17 13 -21 2z"/>
<path d="M8375 4221 c-7 -12 12 -24 25 -16 11 7 4 25 -10 25 -5 0 -11 -4 -15
-9z"/>
<path d="M7880 4110 c0 -16 5 -21 23 -18 12 2 22 10 22 18 0 8 -10 16 -22 18
-18 3 -23 -2 -23 -18z"/>
<path d="M7740 4070 c0 -5 7 -10 15 -10 8 0 15 -7 15 -15 0 -8 -6 -15 -14 -15
-7 0 -19 -6 -25 -14 -10 -11 -7 -17 11 -30 22 -16 22 -16 4 -47 -15 -25 -16
-33 -5 -39 7 -5 17 -6 21 -4 19 12 6 -37 -18 -65 -19 -23 -24 -38 -20 -56 5
-18 2 -25 -9 -25 -8 0 -15 -7 -15 -15 0 -10 -10 -15 -31 -15 -27 0 -30 2 -19
15 7 8 19 15 28 15 13 0 13 2 -1 18 -21 23 -21 36 -2 52 19 15 20 40 2 40 -26
0 -61 -53 -63 -97 -2 -24 1 -43 7 -43 19 0 21 -31 4 -50 -17 -19 -17 -21 -2
-38 10 -10 17 -31 17 -45 0 -33 29 -37 48 -7 15 25 8 40 -19 40 -32 0 -22 27
26 67 25 20 45 43 45 50 0 7 7 13 15 13 10 0 15 10 15 33 0 20 8 39 20 50 11
9 20 23 20 30 0 8 -9 24 -20 37 -24 28 -24 25 -4 45 14 14 15 21 5 43 -11 22
-10 28 5 39 17 12 17 14 -4 33 -22 21 -52 27 -52 10z"/>
<path d="M8239 4053 c-13 -16 -12 -17 4 -4 9 7 17 15 17 17 0 8 -8 3 -21 -13z"/>
<path d="M7862 3987 c-28 -30 -28 -47 1 -47 22 0 28 7 55 63 9 17 -37 5 -56
-16z"/>
<path d="M7960 3961 c0 -16 6 -21 26 -21 33 0 30 33 -4 38 -17 3 -22 -2 -22
-17z"/>
<path d="M7837 3858 c-4 -14 55 -78 72 -78 24 0 19 23 -12 55 -36 37 -52 43
-60 23z"/>
<path d="M7957 3763 c-38 -29 -48 -53 -21 -53 22 0 74 54 65 69 -5 8 -18 3
-44 -16z"/>
<path d="M8198 3733 c7 -3 16 -2 19 1 4 3 -2 6 -13 5 -11 0 -14 -3 -6 -6z"/>
<path d="M7744 3702 c-6 -4 -14 -19 -18 -34 -5 -24 -3 -28 14 -28 21 0 41 35
33 58 -6 14 -13 15 -29 4z"/>
<path d="M7770 3617 c0 -8 -7 -17 -15 -21 -15 -5 -22 -46 -7 -46 14 0 63 52
59 63 -6 18 -37 21 -37 4z"/>
<path d="M7496 3513 c-3 -4 -6 -48 -6 -100 0 -76 3 -93 15 -93 8 0 15 -4 15
-9 0 -4 11 -20 25 -35 14 -15 25 -36 25 -47 0 -10 6 -19 13 -19 20 0 37 21 37
46 0 12 5 24 11 26 9 3 9 9 0 25 -6 12 -11 32 -11 44 0 13 -12 33 -27 45 l-28
22 28 11 c32 12 32 34 0 39 -14 2 -23 -4 -28 -18 -4 -13 -13 -20 -23 -18 -13
3 -16 13 -15 40 2 34 -15 56 -31 41z m72 -161 c3 -30 1 -33 -20 -30 -23 3 -34
27 -24 54 11 28 41 11 44 -24z"/>
<path d="M7646 3505 c-8 -21 1 -35 20 -35 10 0 14 8 12 22 -4 27 -23 34 -32
13z"/>
<path d="M7736 3504 c-8 -20 1 -34 20 -34 8 0 14 10 14 25 0 28 -24 34 -34 9z"/>
<path d="M7660 3427 l-25 -10 23 -5 c26 -4 36 1 31 16 -3 6 -14 5 -29 -1z"/>
<path d="M7693 3345 c-7 -20 2 -29 21 -22 9 4 13 13 10 22 -8 19 -23 19 -31 0z"/>
<path d="M7736 3265 c-3 -8 1 -20 7 -27 7 -7 16 -21 20 -30 9 -24 24 -23 37 2
9 16 8 22 -4 26 -8 3 -18 14 -21 25 -7 23 -30 25 -39 4z"/>
<path d="M7656 3218 c-9 -12 -16 -28 -16 -35 0 -6 -9 -19 -21 -27 -22 -15 -18
-36 7 -36 8 0 14 -4 14 -9 0 -18 33 -20 61 -4 31 19 35 46 8 51 -10 2 -19 -6
-22 -18 -3 -12 -13 -20 -26 -20 -28 0 -27 28 2 32 18 2 23 10 25 46 3 46 -8
54 -32 20z"/>
<path d="M8120 3180 c0 -21 4 -30 13 -27 6 2 12 14 12 27 0 13 -6 25 -12 28
-9 2 -13 -7 -13 -28z"/>
<path d="M7841 3184 c0 -11 3 -14 6 -6 3 7 2 16 -1 19 -3 4 -6 -2 -5 -13z"/>
<path d="M8153 3108 c4 -14 36 -12 52 3 5 5 -4 9 -24 9 -22 0 -31 -4 -28 -12z"/>
<path d="M7657 3043 c-25 -24 31 -55 59 -32 25 21 16 39 -19 39 -19 0 -37 -3
-40 -7z"/>
<path d="M7874 3039 c-10 -17 23 -46 37 -32 7 7 9 19 6 27 -7 18 -33 21 -43 5z"/>
<path d="M8152 3028 c4 -28 21 -33 42 -13 20 21 12 35 -20 35 -20 0 -25 -4
-22 -22z"/>
<path d="M7956 2954 c-8 -21 1 -34 25 -34 23 0 26 35 3 44 -21 8 -21 8 -28
-10z"/>
<path d="M8120 2945 c0 -17 5 -25 13 -22 6 2 12 12 12 22 0 10 -6 20 -12 23
-8 2 -13 -6 -13 -23z"/>
<path d="M7635 2925 c-42 -43 -45 -70 -10 -79 31 -8 32 -22 4 -37 -19 -10 -20
-13 -6 -26 17 -17 37 -10 37 13 0 8 6 14 14 14 27 0 28 20 2 30 -33 12 -33 25
0 55 26 24 29 55 6 63 -7 2 -28 -13 -47 -33z"/>
<path d="M8034 2879 c-3 -6 -2 -15 3 -20 13 -13 43 -1 43 17 0 16 -36 19 -46
3z"/>
<path d="M7530 2823 c0 -10 -9 -33 -20 -51 -23 -37 -26 -72 -7 -72 6 1 28 14
47 31 31 27 33 31 21 50 -10 17 -10 23 -1 29 17 11 3 30 -21 30 -11 0 -19 -7
-19 -17z"/>
<path d="M7722 2793 c4 -20 18 -26 37 -14 18 12 5 31 -20 31 -14 0 -19 -6 -17
-17z"/>
<path d="M8111 2787 c7 -15 16 -27 21 -27 14 0 9 16 -13 36 -21 19 -21 19 -8
-9z"/>
<path d="M7431 2713 c-7 -8 -11 -16 -8 -19 6 -7 37 7 37 16 0 16 -15 18 -29 3z"/>
<path d="M7318 2688 c-9 -7 -20 -25 -24 -40 -5 -22 -3 -28 11 -28 9 0 23 7 31
15 19 19 44 7 74 -35 13 -18 26 -27 35 -23 21 8 18 30 -5 43 -11 6 -20 21 -20
35 0 28 -3 30 -50 39 -23 4 -42 2 -52 -6z"/>
<path d="M7566 2685 c-19 -14 -14 -35 8 -35 8 0 21 11 30 25 15 23 15 25 -1
25 -10 0 -26 -7 -37 -15z"/>
<path d="M7658 2678 c-7 -19 2 -38 17 -38 15 0 28 27 19 41 -8 13 -31 11 -36
-3z"/>
<path d="M7300 2560 c-9 -16 -8 -22 4 -26 21 -8 36 3 36 27 0 25 -26 25 -40
-1z"/>
<path d="M7415 2521 c-3 -6 3 -15 14 -20 27 -15 31 -14 31 9 0 21 -33 29 -45
11z"/>
<path d="M7786 2495 c4 -8 11 -15 16 -15 6 0 5 6 -2 15 -7 8 -14 15 -16 15 -2
0 -1 -7 2 -15z"/>
<path d="M7340 2485 c0 -11 7 -15 23 -13 12 2 22 8 22 13 0 6 -10 11 -22 13
-16 2 -23 -2 -23 -13z"/>
<path d="M7350 2400 c0 -13 7 -20 20 -20 24 0 27 25 4 34 -23 9 -24 8 -24 -14z"/>
<path d="M7495 2380 c-7 -12 12 -40 27 -40 16 0 21 32 7 41 -18 12 -26 11 -34
-1z"/>
<path d="M7419 2348 c0 -2 -2 -11 -4 -20 -3 -17 -53 -67 -67 -68 -5 0 -8 -9
-8 -20 0 -15 7 -20 29 -20 33 0 50 -26 23 -35 -25 -7 -18 -75 7 -75 10 0 23
-12 29 -26 13 -27 32 -24 32 6 0 10 -9 22 -20 25 -13 4 -20 15 -20 31 0 13 9
32 20 41 23 20 26 51 6 59 -23 9 -25 40 -4 58 22 19 19 39 -5 44 -9 2 -17 2
-18 0z"/>
<path d="M7573 2175 c-3 -9 -3 -18 0 -21 10 -10 47 7 47 22 0 19 -39 18 -47
-1z"/>
<path d="M7616 2092 c-2 -4 -1 -14 4 -22 7 -11 11 -11 24 -1 9 8 16 17 16 22
0 11 -37 12 -44 1z"/>
<path d="M7426 2025 c-9 -9 -16 -25 -16 -36 0 -31 44 -21 48 10 5 33 -11 46
-32 26z"/>
<path d="M8000 6454 c0 -14 -11 -40 -25 -58 -30 -40 -31 -53 -5 -61 34 -11 75
53 79 123 1 17 -4 22 -24 22 -20 0 -25 -5 -25 -26z"/>
<path d="M7152 2173 c5 -25 28 -28 28 -4 0 12 -6 21 -16 21 -9 0 -14 -7 -12
-17z"/>
<path d="M2482 9990 c0 -14 2 -19 5 -12 2 6 2 18 0 25 -3 6 -5 1 -5 -13z"/>
<path d="M5771 9984 c-7 -8 -11 -17 -9 -20 3 -2 13 5 23 16 10 11 14 20 9 20
-5 -1 -15 -8 -23 -16z"/>
<path d="M5010 9980 c0 -5 9 -10 20 -10 11 0 20 5 20 10 0 6 -9 10 -20 10 -11
0 -20 -4 -20 -10z"/>
<path d="M4990 9900 c0 -5 5 -10 10 -10 6 0 10 5 10 10 0 6 -4 10 -10 10 -5 0
-10 -4 -10 -10z"/>
<path d="M4980 9731 c0 -12 26 -32 33 -25 9 10 -4 34 -19 34 -8 0 -14 -4 -14
-9z"/>
<path d="M8100 9724 c0 -8 5 -12 10 -9 6 4 8 11 5 16 -9 14 -15 11 -15 -7z"/>
<path d="M4935 9680 c-3 -5 -1 -10 4 -10 6 0 11 5 11 10 0 6 -2 10 -4 10 -3 0
-8 -4 -11 -10z"/>
<path d="M4975 9631 c-3 -5 -1 -12 5 -16 5 -3 10 1 10 9 0 18 -6 21 -15 7z"/>
<path d="M4792 9611 c4 -13 18 -16 19 -4 0 4 -5 9 -11 12 -7 2 -11 -2 -8 -8z"/>
<path d="M4691 9514 c0 -11 3 -14 6 -6 3 7 2 16 -1 19 -3 4 -6 -2 -5 -13z"/>
<path d="M4782 9514 c1 -9 9 -19 16 -22 9 -3 13 2 10 14 -1 9 -9 19 -16 22 -9
3 -13 -2 -10 -14z"/>
<path d="M4440 9505 c0 -8 5 -15 10 -15 6 0 10 7 10 15 0 8 -4 15 -10 15 -5 0
-10 -7 -10 -15z"/>
<path d="M4794 9415 c-19 -14 -18 -14 4 -15 13 0 22 6 22 15 0 19 -1 19 -26 0z"/>
<path d="M4648 9401 c-26 -26 -22 -34 7 -15 14 9 25 20 25 25 0 14 -13 10 -32
-10z"/>
<path d="M4745 9381 c-3 -5 -1 -12 5 -16 5 -3 10 1 10 9 0 18 -6 21 -15 7z"/>
<path d="M4207 9373 c-13 -12 -7 -23 13 -23 11 0 20 7 20 15 0 15 -21 21 -33
8z"/>
<path d="M4366 9322 c-4 -7 0 -22 8 -34 17 -24 21 -9 7 26 -5 14 -10 16 -15 8z"/>
<path d="M4316 9221 c-4 -7 -5 -15 -2 -18 9 -9 19 4 14 18 -4 11 -6 11 -12 0z"/>
<path d="M4470 9174 c0 -8 5 -12 10 -9 6 4 8 11 5 16 -9 14 -15 11 -15 -7z"/>
<path d="M4377 9173 c-4 -3 -7 -11 -7 -17 0 -6 5 -5 12 2 6 6 9 14 7 17 -3 3
-9 2 -12 -2z"/>
<path d="M9075 9060 c3 -5 8 -10 11 -10 2 0 4 5 4 10 0 6 -5 10 -11 10 -5 0
-7 -4 -4 -10z"/>
<path d="M4260 9034 c0 -13 18 -39 24 -34 2 3 -2 14 -10 24 -8 11 -14 16 -14
10z"/>
<path d="M4070 8955 c0 -8 5 -15 10 -15 6 0 10 7 10 15 0 8 -4 15 -10 15 -5 0
-10 -7 -10 -15z"/>
<path d="M4045 8840 c3 -5 8 -10 11 -10 2 0 4 5 4 10 0 6 -5 10 -11 10 -5 0
-7 -4 -4 -10z"/>
<path d="M4160 8820 c0 -5 5 -10 10 -10 6 0 10 5 10 10 0 6 -4 10 -10 10 -5 0
-10 -4 -10 -10z"/>
<path d="M9465 8761 c-7 -12 12 -24 25 -16 11 7 4 25 -10 25 -5 0 -11 -4 -15
-9z"/>
<path d="M4042 8743 c5 -25 28 -28 28 -4 0 12 -6 21 -16 21 -9 0 -14 -7 -12
-17z"/>
<path d="M9710 8600 c0 -5 5 -10 10 -10 6 0 10 5 10 10 0 6 -4 10 -10 10 -5 0
-10 -4 -10 -10z"/>
<path d="M9630 8540 c0 -5 5 -10 11 -10 5 0 7 5 4 10 -3 6 -8 10 -11 10 -2 0
-4 -4 -4 -10z"/>
<path d="M3746 8334 c-8 -21 -8 -24 3 -24 5 0 11 9 14 20 6 24 -8 27 -17 4z"/>
<path d="M3660 8309 c0 -5 5 -7 10 -4 6 3 10 8 10 11 0 2 -4 4 -10 4 -5 0 -10
-5 -10 -11z"/>
<path d="M9995 8301 c-3 -5 -1 -12 5 -16 5 -3 10 1 10 9 0 18 -6 21 -15 7z"/>
<path d="M3592 8201 c4 -13 18 -16 19 -4 0 4 -5 9 -11 12 -7 2 -11 -2 -8 -8z"/>
<path d="M3441 8154 c0 -11 3 -14 6 -6 3 7 2 16 -1 19 -3 4 -6 -2 -5 -13z"/>
<path d="M3565 8120 c-3 -5 -1 -10 4 -10 6 0 11 5 11 10 0 6 -2 10 -4 10 -3 0
-8 -4 -11 -10z"/>
<path d="M3442 8055 c0 -16 2 -22 5 -12 2 9 2 23 0 30 -3 6 -5 -1 -5 -18z"/>
<path d="M3460 7890 c0 -5 5 -10 10 -10 6 0 10 5 10 10 0 6 -4 10 -10 10 -5 0
-10 -4 -10 -10z"/>
<path d="M10130 7820 c-12 -8 -11 -10 8 -10 12 0 22 5 22 10 0 13 -11 13 -30
0z"/>
<path d="M3440 7804 c0 -8 5 -12 10 -9 6 3 10 10 10 16 0 5 -4 9 -10 9 -5 0
-10 -7 -10 -16z"/>
<path d="M3243 7803 c-22 -8 -14 -28 17 -40 34 -13 46 -3 30 27 -11 20 -23 23
-47 13z"/>
<path d="M3240 7724 c0 -8 5 -12 10 -9 6 3 10 10 10 16 0 5 -4 9 -10 9 -5 0
-10 -7 -10 -16z"/>
<path d="M3160 7665 c-7 -9 -10 -27 -7 -44 4 -20 2 -31 -8 -35 -9 -3 -15 -18
-15 -35 0 -29 22 -51 68 -65 17 -6 22 -3 22 11 0 11 -5 24 -10 29 -8 8 -6 15
5 24 20 17 20 66 -2 74 -12 5 -14 9 -5 18 7 7 12 18 12 25 0 18 -45 16 -60 -2z"/>
<path d="M3310 7590 c0 -5 5 -10 10 -10 6 0 10 5 10 10 0 6 -4 10 -10 10 -5 0
-10 -4 -10 -10z"/>
<path d="M10311 7553 c0 -25 1 -26 9 -8 12 27 12 35 0 35 -5 0 -10 -12 -9 -27z"/>
<path d="M3302 7498 c5 -15 28 -18 29 -3 0 6 -7 12 -17 13 -10 3 -15 -1 -12
-10z"/>
<path d="M10280 7370 c0 -5 5 -10 10 -10 6 0 10 5 10 10 0 6 -4 10 -10 10 -5
0 -10 -4 -10 -10z"/>
<path d="M10308 7315 c2 -14 6 -25 8 -25 2 0 4 11 4 25 0 14 -4 25 -9 25 -4 0
-6 -11 -3 -25z"/>
<path d="M10430 7330 c0 -5 5 -10 10 -10 6 0 10 5 10 10 0 6 -4 10 -10 10 -5
0 -10 -4 -10 -10z"/>
<path d="M3305 7311 c-6 -11 9 -23 19 -14 9 9 7 23 -3 23 -6 0 -12 -4 -16 -9z"/>
<path d="M3310 7219 c0 -5 5 -7 10 -4 6 3 10 8 10 11 0 2 -4 4 -10 4 -5 0 -10
-5 -10 -11z"/>
<path d="M3100 7040 c0 -11 5 -20 10 -20 6 0 10 9 10 20 0 11 -4 20 -10 20 -5
0 -10 -9 -10 -20z"/>
<path d="M2990 7036 c0 -2 7 -9 15 -16 12 -10 15 -10 15 4 0 9 -7 16 -15 16
-8 0 -15 -2 -15 -4z"/>
<path d="M10420 7014 c0 -5 7 -19 15 -30 8 -10 15 -14 15 -8 0 5 -7 19 -15 30
-8 10 -15 14 -15 8z"/>
<path d="M3030 6890 c0 -5 5 -10 11 -10 5 0 7 5 4 10 -3 6 -8 10 -11 10 -2 0
-4 -4 -4 -10z"/>
<path d="M10455 6880 c3 -5 11 -10 16 -10 6 0 7 5 4 10 -3 6 -11 10 -16 10 -6
0 -7 -4 -4 -10z"/>
<path d="M3025 6820 c3 -5 8 -10 11 -10 2 0 4 5 4 10 0 6 -5 10 -11 10 -5 0
-7 -4 -4 -10z"/>
<path d="M3141 6814 c0 -11 3 -14 6 -6 3 7 2 16 -1 19 -3 4 -6 -2 -5 -13z"/>
<path d="M3011 6731 c12 -34 37 -48 46 -24 8 21 -9 47 -35 51 -20 3 -21 1 -11
-27z"/>
<path d="M2950 6590 c0 -5 5 -10 10 -10 6 0 10 5 10 10 0 6 -4 10 -10 10 -5 0
-10 -4 -10 -10z"/>
<path d="M2830 6530 c0 -5 5 -10 10 -10 6 0 10 5 10 10 0 6 -4 10 -10 10 -5 0
-10 -4 -10 -10z"/>
<path d="M2820 6440 c0 -5 5 -10 10 -10 6 0 10 5 10 10 0 6 -4 10 -10 10 -5 0
-10 -4 -10 -10z"/>
<path d="M2890 6406 c0 -2 7 -7 16 -10 8 -3 12 -2 9 4 -6 10 -25 14 -25 6z"/>
<path d="M3036 6373 c-11 -11 -6 -23 9 -23 8 0 15 4 15 9 0 13 -16 22 -24 14z"/>
<path d="M2840 6349 c-14 -25 -12 -27 28 -35 25 -5 32 -3 32 9 0 47 -40 65
-60 26z"/>
<path d="M2940 6346 c0 -2 7 -9 15 -16 13 -11 14 -10 9 4 -5 14 -24 23 -24 12z"/>
<path d="M3065 6310 c3 -5 10 -10 16 -10 5 0 9 5 9 10 0 6 -7 10 -16 10 -8 0
-12 -4 -9 -10z"/>
<path d="M10548 6253 c7 -3 16 -2 19 1 4 3 -2 6 -13 5 -11 0 -14 -3 -6 -6z"/>
<path d="M2820 6240 c0 -5 12 -10 28 -10 21 0 24 2 12 10 -20 13 -40 13 -40 0z"/>
<path d="M2968 6233 c7 -3 16 -2 19 1 4 3 -2 6 -13 5 -11 0 -14 -3 -6 -6z"/>
<path d="M10620 6229 c0 -5 5 -7 10 -4 6 3 10 8 10 11 0 2 -4 4 -10 4 -5 0
-10 -5 -10 -11z"/>
<path d="M2890 6201 c0 -5 7 -12 16 -15 22 -9 24 -8 24 9 0 8 -9 15 -20 15
-11 0 -20 -4 -20 -9z"/>
<path d="M3070 6125 c0 -8 5 -15 10 -15 6 0 10 7 10 15 0 8 -4 15 -10 15 -5 0
-10 -7 -10 -15z"/>
<path d="M2906 6093 c-11 -11 -6 -23 9 -23 8 0 15 4 15 9 0 13 -16 22 -24 14z"/>
<path d="M10620 6050 c0 -5 5 -10 10 -10 6 0 10 5 10 10 0 6 -4 10 -10 10 -5
0 -10 -4 -10 -10z"/>
<path d="M2970 6012 c6 -13 14 -21 18 -18 3 4 -2 14 -12 24 -18 16 -18 16 -6
-6z"/>
<path d="M10560 5940 c0 -13 11 -13 30 0 12 8 11 10 -7 10 -13 0 -23 -4 -23
-10z"/>
<path d="M2815 5907 c-4 -10 -5 -21 -1 -24 10 -10 18 4 13 24 -4 17 -4 17 -12
0z"/>
<path d="M2895 5890 c-3 -5 -1 -10 4 -10 6 0 11 5 11 10 0 6 -2 10 -4 10 -3 0
-8 -4 -11 -10z"/>
<path d="M2857 5863 c-4 -3 -7 -11 -7 -17 0 -6 5 -5 12 2 6 6 9 14 7 17 -3 3
-9 2 -12 -2z"/>
<path d="M2823 5819 c-36 -13 -47 -45 -33 -95 15 -51 25 -49 25 4 0 34 2 37
27 34 27 -3 27 -2 16 30 -6 18 -11 34 -12 34 -1 1 -11 -2 -23 -7z"/>
<path d="M10621 5774 c0 -11 3 -14 6 -6 3 7 2 16 -1 19 -3 4 -6 -2 -5 -13z"/>
<path d="M3260 5676 c0 -9 30 -14 35 -6 4 6 -3 10 -14 10 -12 0 -21 -2 -21 -4z"/>
<path d="M3152 5645 c-6 -14 -16 -25 -22 -25 -5 0 -10 -9 -10 -20 0 -14 7 -20
21 -20 16 0 19 -4 14 -22 -8 -25 -8 -26 -6 -45 2 -19 32 -16 47 4 7 10 15 15
19 11 4 -4 -2 -19 -14 -34 -24 -31 -26 -41 -8 -58 13 -14 87 -31 87 -21 0 4
-7 13 -15 21 -8 9 -15 24 -15 33 0 10 7 24 15 31 22 18 19 50 -4 50 -11 0 -23
9 -26 20 -4 14 -15 20 -37 20 -43 0 -30 24 15 28 46 4 48 24 4 40 -46 17 -52
15 -65 -13z"/>
<path d="M3070 5636 c0 -17 14 -29 23 -20 8 8 -3 34 -14 34 -5 0 -9 -6 -9 -14z"/>
<path d="M10633 5633 c-13 -5 -19 -33 -7 -33 7 0 34 27 34 34 0 7 -10 7 -27
-1z"/>
<path d="M2805 5610 c-3 -5 -1 -10 4 -10 6 0 11 5 11 10 0 6 -2 10 -4 10 -3 0
-8 -4 -11 -10z"/>
<path d="M2955 5570 c3 -5 8 -10 11 -10 2 0 4 5 4 10 0 6 -5 10 -11 10 -5 0
-7 -4 -4 -10z"/>
<path d="M2925 5510 c3 -5 8 -10 11 -10 2 0 4 5 4 10 0 6 -5 10 -11 10 -5 0
-7 -4 -4 -10z"/>
<path d="M3016 5498 c-9 -36 -8 -40 17 -36 16 2 22 10 22 28 0 33 -30 39 -39
8z"/>
<path d="M3111 5504 c0 -11 3 -14 6 -6 3 7 2 16 -1 19 -3 4 -6 -2 -5 -13z"/>
<path d="M2830 5493 c1 -14 38 -53 50 -53 7 0 5 6 -4 16 -9 8 -16 22 -16 30 0
8 -7 14 -15 14 -8 0 -15 -3 -15 -7z"/>
<path d="M3107 5424 c-8 -8 1 -24 14 -24 5 0 9 7 9 15 0 15 -12 20 -23 9z"/>
<path d="M3070 5355 c0 -8 5 -15 10 -15 6 0 10 7 10 15 0 8 -4 15 -10 15 -5 0
-10 -7 -10 -15z"/>
<path d="M2975 5350 c-3 -5 -1 -10 4 -10 6 0 11 5 11 10 0 6 -2 10 -4 10 -3 0
-8 -4 -11 -10z"/>
<path d="M3230 5345 c-26 -31 12 -59 49 -36 16 10 8 26 -19 41 -13 7 -21 6
-30 -5z"/>
<path d="M10595 5320 c-3 -5 -1 -10 4 -10 6 0 11 5 11 10 0 6 -2 10 -4 10 -3
0 -8 -4 -11 -10z"/>
<path d="M10660 5289 c0 -5 5 -7 10 -4 6 3 10 8 10 11 0 2 -4 4 -10 4 -5 0
-10 -5 -10 -11z"/>
<path d="M3075 5241 c-7 -12 12 -24 25 -16 11 7 4 25 -10 25 -5 0 -11 -4 -15
-9z"/>
<path d="M10515 5229 c-4 -6 -5 -13 -2 -16 7 -7 27 6 27 18 0 12 -17 12 -25
-2z"/>
<path d="M3161 5212 c-13 -25 2 -38 19 -16 9 10 10 18 3 25 -8 8 -14 5 -22 -9z"/>
<path d="M3117 5144 c-4 -4 -7 -14 -7 -23 0 -11 3 -12 11 -4 6 6 10 16 7 23
-2 6 -7 8 -11 4z"/>
<path d="M3177 5124 c-55 -64 -67 -74 -89 -71 -15 1 -23 -3 -23 -13 0 -15 7
-16 38 -5 28 11 22 -43 -8 -71 -21 -20 -24 -27 -15 -44 12 -23 40 -27 40 -5 0
8 5 15 10 15 6 0 15 11 22 25 6 13 25 29 42 35 l31 11 -29 23 c-36 29 -26 49
20 44 37 -4 43 8 24 56 -12 33 -34 33 -63 0z"/>
<path d="M3272 5038 c-28 -28 5 -57 49 -43 16 5 18 9 8 21 -21 25 -45 34 -57
22z"/>
<path d="M3024 4995 c-17 -13 -17 -14 -2 -15 9 0 20 5 23 11 11 17 0 20 -21 4z"/>
<path d="M3145 4887 c-38 -42 -45 -55 -39 -71 3 -9 12 -16 19 -16 26 0 40 -30
28 -60 -14 -37 3 -63 37 -58 26 3 40 28 16 28 -20 0 -20 14 0 45 16 24 15 26
-15 52 -33 29 -39 51 -19 71 8 8 8 15 3 21 -6 6 -17 2 -30 -12z"/>
<path d="M3216 4836 c7 -19 48 -22 42 -3 -3 6 -14 13 -26 15 -16 3 -20 -1 -16
-12z"/>
<path d="M3112 4740 c0 -14 2 -19 5 -12 2 6 2 18 0 25 -3 6 -5 1 -5 -13z"/>
<path d="M2935 4689 c-4 -6 -5 -13 -2 -16 7 -7 27 6 27 18 0 12 -17 12 -25 -2z"/>
<path d="M2955 4590 c-3 -5 -1 -10 4 -10 6 0 11 5 11 10 0 6 -2 10 -4 10 -3 0
-8 -4 -11 -10z"/>
<path d="M3068 4578 c-9 -26 5 -66 24 -71 11 -3 22 -15 25 -26 3 -12 9 -21 13
-21 12 0 50 50 50 66 0 19 -33 22 -53 5 -17 -14 -20 -14 -32 2 -7 10 -11 27
-8 37 6 21 -13 28 -19 8z"/>
<path d="M10355 4530 c-3 -5 1 -10 9 -10 9 0 16 5 16 10 0 6 -4 10 -9 10 -6 0
-13 -4 -16 -10z"/>
<path d="M3306 4473 c-12 -12 -6 -33 9 -33 8 0 15 6 15 14 0 17 -14 28 -24 19z"/>
<path d="M3171 4454 c-25 -18 -28 -52 -5 -61 17 -6 53 30 54 53 0 19 -26 23
-49 8z"/>
<path d="M10430 4434 c0 -8 5 -12 10 -9 6 3 10 10 10 16 0 5 -4 9 -10 9 -5 0
-10 -7 -10 -16z"/>
<path d="M3255 4410 c-3 -5 -2 -10 4 -10 5 0 13 5 16 10 3 6 2 10 -4 10 -5 0
-13 -4 -16 -10z"/>
<path d="M3018 4373 c7 -3 16 -2 19 1 4 3 -2 6 -13 5 -11 0 -14 -3 -6 -6z"/>
<path d="M10282 4368 c7 -19 38 -22 38 -4 0 10 -9 16 -21 16 -12 0 -19 -5 -17
-12z"/>
<path d="M3135 4360 c3 -5 8 -10 11 -10 2 0 4 5 4 10 0 6 -5 10 -11 10 -5 0
-7 -4 -4 -10z"/>
<path d="M3227 4343 c-12 -11 -8 -23 8 -23 8 0 15 7 15 15 0 16 -12 20 -23 8z"/>
<path d="M10312 4290 c0 -14 2 -19 5 -12 2 6 2 18 0 25 -3 6 -5 1 -5 -13z"/>
<path d="M10240 4251 c0 -5 5 -13 10 -16 6 -3 10 -2 10 4 0 5 -4 13 -10 16 -5
3 -10 2 -10 -4z"/>
<path d="M3270 4195 c0 -41 20 -47 44 -14 19 28 10 49 -20 49 -21 0 -24 -5
-24 -35z"/>
<path d="M10280 4190 c0 -5 5 -10 10 -10 6 0 10 5 10 10 0 6 -4 10 -10 10 -5
0 -10 -4 -10 -10z"/>
<path d="M3125 4180 c4 -6 11 -8 16 -5 14 9 11 15 -7 15 -8 0 -12 -5 -9 -10z"/>
<path d="M3204 4155 c11 -8 22 -12 25 -9 6 6 -19 24 -34 24 -5 -1 -1 -7 9 -15z"/>
<path d="M3100 4146 c0 -8 5 -18 10 -21 6 -3 10 3 10 14 0 12 -4 21 -10 21 -5
0 -10 -6 -10 -14z"/>
<path d="M3270 4110 c0 -28 3 -31 28 -28 21 2 27 8 27 28 0 20 -6 26 -27 28
-25 3 -28 0 -28 -28z"/>
<path d="M3125 4100 c3 -5 8 -10 11 -10 2 0 4 5 4 10 0 6 -5 10 -11 10 -5 0
-7 -4 -4 -10z"/>
<path d="M3350 4067 c-46 -16 -54 -47 -11 -47 22 0 31 6 37 23 4 12 12 25 18
29 16 11 -4 9 -44 -5z"/>
<path d="M10228 4073 c7 -3 16 -2 19 1 4 3 -2 6 -13 5 -11 0 -14 -3 -6 -6z"/>
<path d="M3147 4063 c-13 -12 -7 -23 13 -23 11 0 20 7 20 15 0 15 -21 21 -33
8z"/>
<path d="M3126 3983 c-4 -9 -2 -21 4 -27 7 -7 10 -2 10 17 0 31 -5 34 -14 10z"/>
<path d="M3310 3961 c0 -6 5 -13 10 -16 6 -3 10 1 10 9 0 9 -4 16 -10 16 -5 0
-10 -4 -10 -9z"/>
<path d="M3220 3930 c0 -5 5 -10 10 -10 6 0 10 5 10 10 0 6 -4 10 -10 10 -5 0
-10 -4 -10 -10z"/>
<path d="M10120 3910 c0 -5 5 -10 10 -10 6 0 10 5 10 10 0 6 -4 10 -10 10 -5
0 -10 -4 -10 -10z"/>
<path d="M3260 3901 c0 -6 5 -13 10 -16 6 -3 10 1 10 9 0 9 -4 16 -10 16 -5 0
-10 -4 -10 -9z"/>
<path d="M3360 3884 c0 -8 5 -12 10 -9 6 4 8 11 5 16 -9 14 -15 11 -15 -7z"/>
<path d="M3310 3850 c0 -5 5 -10 10 -10 6 0 10 5 10 10 0 6 -4 10 -10 10 -5 0
-10 -4 -10 -10z"/>
<path d="M3350 3795 c0 -8 7 -15 15 -15 8 0 15 4 15 9 0 5 -7 11 -15 15 -9 3
-15 0 -15 -9z"/>
<path d="M3354 3705 c-4 -9 -3 -19 0 -23 9 -8 42 12 39 24 -4 16 -33 16 -39
-1z"/>
<path d="M3455 3700 c4 -6 11 -8 16 -5 14 9 11 15 -7 15 -8 0 -12 -5 -9 -10z"/>
<path d="M3427 3619 c3 -24 7 -45 7 -46 1 -2 12 4 24 13 27 19 29 54 4 54 -10
0 -23 5 -29 11 -8 8 -10 0 -6 -32z"/>
<path d="M3380 3610 c0 -5 5 -10 10 -10 6 0 10 5 10 10 0 6 -4 10 -10 10 -5 0
-10 -4 -10 -10z"/>
<path d="M3440 3525 c0 -8 7 -15 15 -15 8 0 15 4 15 9 0 5 -7 11 -15 15 -9 3
-15 0 -15 -9z"/>
<path d="M3503 3477 c-29 -45 -32 -57 -14 -57 27 0 81 21 81 31 0 5 -13 15
-29 24 -24 12 -32 12 -38 2z"/>
<path d="M3420 3420 c0 -5 5 -10 10 -10 6 0 10 5 10 10 0 6 -4 10 -10 10 -5 0
-10 -4 -10 -10z"/>
<path d="M3540 3380 c0 -5 5 -10 10 -10 6 0 10 5 10 10 0 6 -4 10 -10 10 -5 0
-10 -4 -10 -10z"/>
<path d="M9755 3380 c3 -5 11 -10 16 -10 6 0 7 5 4 10 -3 6 -11 10 -16 10 -6
0 -7 -4 -4 -10z"/>
<path d="M3575 3320 c4 -6 11 -8 16 -5 14 9 11 15 -7 15 -8 0 -12 -5 -9 -10z"/>
<path d="M9730 3279 c0 -5 5 -7 10 -4 6 3 10 8 10 11 0 2 -4 4 -10 4 -5 0 -10
-5 -10 -11z"/>
<path d="M3440 3240 c0 -19 3 -21 12 -12 9 9 9 15 0 24 -9 9 -12 7 -12 -12z"/>
<path d="M9620 3169 c0 -5 5 -7 10 -4 6 3 10 8 10 11 0 2 -4 4 -10 4 -5 0 -10
-5 -10 -11z"/>
<path d="M3565 3129 c-10 -15 3 -25 16 -12 7 7 7 13 1 17 -6 3 -14 1 -17 -5z"/>
<path d="M9660 3130 c0 -5 5 -10 10 -10 6 0 10 5 10 10 0 6 -4 10 -10 10 -5 0
-10 -4 -10 -10z"/>
<path d="M3652 3118 c6 -18 28 -21 28 -4 0 9 -7 16 -16 16 -9 0 -14 -5 -12
-12z"/>
<path d="M3660 3030 c0 -5 5 -10 10 -10 6 0 10 5 10 10 0 6 -4 10 -10 10 -5 0
-10 -4 -10 -10z"/>
<path d="M9300 2760 c0 -5 5 -10 10 -10 6 0 10 5 10 10 0 6 -4 10 -10 10 -5 0
-10 -4 -10 -10z"/>
<path d="M8980 2600 c0 -5 7 -10 15 -10 8 0 15 5 15 10 0 6 -7 10 -15 10 -8 0
-15 -4 -15 -10z"/>
<path d="M4133 2572 c0 -10 9 -18 18 -18 14 0 15 4 8 18 -5 10 -14 18 -19 18
-5 0 -8 -8 -7 -18z"/>
<path d="M9040 2550 c0 -5 7 -10 15 -10 8 0 15 5 15 10 0 6 -7 10 -15 10 -8 0
-15 -4 -15 -10z"/>
<path d="M4100 2514 c0 -12 21 -44 29 -44 5 0 6 11 3 25 -2 14 -11 25 -18 25
-8 0 -14 -3 -14 -6z"/>
<path d="M4188 2483 c6 -2 18 -2 25 0 6 3 1 5 -13 5 -14 0 -19 -2 -12 -5z"/>
<path d="M8848 2443 c7 -3 16 -2 19 1 4 3 -2 6 -13 5 -11 0 -14 -3 -6 -6z"/>
<path d="M4250 2422 c0 -11 8 -26 18 -35 16 -14 21 -15 37 -3 17 12 17 14 -3
34 -27 27 -52 28 -52 4z"/>
<path d="M4350 2335 c0 -8 5 -15 10 -15 6 0 10 7 10 15 0 8 -4 15 -10 15 -5 0
-10 -7 -10 -15z"/>
<path d="M8590 2305 c0 -8 5 -15 10 -15 6 0 10 7 10 15 0 8 -4 15 -10 15 -5 0
-10 -7 -10 -15z"/>
<path d="M4435 2269 c-4 -11 -4 -23 0 -27 7 -7 25 17 25 36 0 20 -18 14 -25
-9z"/>
<path d="M4502 2211 c4 -13 18 -16 19 -4 0 4 -5 9 -11 12 -7 2 -11 -2 -8 -8z"/>
<path d="M4685 2050 c3 -5 8 -10 11 -10 2 0 4 5 4 10 0 6 -5 10 -11 10 -5 0
-7 -4 -4 -10z"/>
<path d="M8101 2014 c0 -11 3 -14 6 -6 3 7 2 16 -1 19 -3 4 -6 -2 -5 -13z"/>
<path d="M5160 1870 c6 -11 15 -20 20 -20 6 0 5 9 -2 20 -7 11 -16 20 -21 20
-4 0 -3 -9 3 -20z"/>
<path d="M7700 1860 c0 -5 5 -10 10 -10 6 0 10 5 10 10 0 6 -4 10 -10 10 -5 0
-10 -4 -10 -10z"/>
<path d="M7635 1810 c4 -6 11 -8 16 -5 14 9 11 15 -7 15 -8 0 -12 -5 -9 -10z"/>
<path d="M7478 1768 c9 -9 15 -9 24 0 9 9 7 12 -12 12 -19 0 -21 -3 -12 -12z"/>
<path d="M5764 1709 c-8 -14 11 -33 25 -25 11 7 4 36 -9 36 -5 0 -12 -5 -16
-11z"/>
<path d="M6785 1700 c3 -5 8 -10 11 -10 2 0 4 5 4 10 0 6 -5 10 -11 10 -5 0
-7 -4 -4 -10z"/>
</g>
</svg>
